<?xml version="1.0" encoding="UTF-8" standalone="no"?>
<!-- Created with Inkscape (http://www.inkscape.org/) -->

<svg
   xmlns:dc="http://purl.org/dc/elements/1.1/"
   xmlns:cc="http://creativecommons.org/ns#"
   xmlns:rdf="http://www.w3.org/1999/02/22-rdf-syntax-ns#"
   xmlns:svg="http://www.w3.org/2000/svg"
   xmlns="http://www.w3.org/2000/svg"
   xmlns:sodipodi="http://sodipodi.sourceforge.net/DTD/sodipodi-0.dtd"
   xmlns:inkscape="http://www.inkscape.org/namespaces/inkscape"
   width="240"
   height="50"
   viewBox="0 0 63.5 13.229167"
   version="1.1"
   id="svg8"
   inkscape:version="0.92.2 (5c3e80d, 2017-08-06)"
   sodipodi:docname="Notes.svg">
  <defs
     id="defs2" />
  <sodipodi:namedview
     id="base"
     pagecolor="#ffffff"
     bordercolor="#666666"
     borderopacity="1.0"
     inkscape:pageopacity="0.0"
     inkscape:pageshadow="2"
     inkscape:zoom="7.9195959"
     inkscape:cx="117.18549"
     inkscape:cy="28.964118"
     inkscape:document-units="mm"
     inkscape:current-layer="layer1"
     showgrid="false"
     inkscape:object-nodes="true"
     inkscape:snap-intersection-paths="true"
     showguides="true"
     inkscape:guide-bbox="true"
     units="px"
     inkscape:window-width="2560"
     inkscape:window-height="1340"
     inkscape:window-x="2560"
     inkscape:window-y="27"
     inkscape:window-maximized="1" />
  <metadata
     id="metadata5">
    <rdf:RDF>
      <cc:Work
         rdf:about="">
        <dc:format>image/svg+xml</dc:format>
        <dc:type
           rdf:resource="http://purl.org/dc/dcmitype/StillImage" />
        <dc:title></dc:title>
      </cc:Work>
    </rdf:RDF>
  </metadata>
  <g
     inkscape:label="Layer 1"
     inkscape:groupmode="layer"
     id="layer1"
     transform="translate(0,-283.77083)">
    <path
       style="fill:#3dc0be;fill-opacity:1;stroke-width:0.13152693"
       d="m 21.612535,295.51172 c -1.3209,-0.45901 -2.362271,-1.44579 -2.93925,-2.78515 -0.47306,-1.09813 -0.540121,-2.86624 -0.154911,-4.08439 0.473371,-1.49699 1.328099,-2.40328 2.087464,-2.8624 0.556623,-0.33654 1.892208,-0.69099 2.630173,-0.68577 0.734943,-9e-4 1.6412,0.10034 2.21135,0.40938 0.970248,0.52607 1.877304,1.49369 2.367196,2.52523 0.412628,0.86892 0.522488,1.94603 0.52125,2.40642 -0.0016,0.64569 -0.109358,1.46616 -0.516504,2.32341 -0.503602,1.06054 -1.510294,2.13921 -2.389494,2.56019 -0.773531,0.37034 -2.985294,0.48222 -3.817274,0.19308 z m 3.145634,-1.1023 c 0.871824,-0.32881 1.587871,-1.04966 2.059612,-2.07381 0.361982,-0.78621 0.419693,-1.05194 0.419693,-1.93414 0,-0.839 -0.06272,-1.15867 -0.347763,-1.77978 -0.441939,-0.96159 -1.097577,-1.66234 -1.997266,-2.13459 -0.915215,-0.48041 -2.298805,-0.51298 -3.189081,-0.075 -1.432425,0.70465 -2.287092,2.05121 -2.38588,3.75908 -0.183922,3.17953 2.566548,5.32212 5.440685,4.23826 z m 29.450128,1.07295 c -0.527431,-0.30761 -0.804545,-0.57734 -1.227164,-1.19477 -0.471477,-0.68864 -0.457835,-0.85351 0.0931,-1.13426 0.425439,-0.21692 0.463772,-0.21725 0.574908,-0.004 0.749723,1.43193 2.044525,1.82897 2.918407,0.89494 0.426048,-0.45559 0.568378,-0.90145 0.449395,-1.40855 -0.098,-0.41701 -1.056471,-1.46585 -2.372725,-2.5964 -1.204706,-1.03495 -1.435132,-1.50319 -1.367716,-2.77957 0.04313,-0.80675 0.09948,-0.98745 0.426937,-1.35965 0.505587,-0.57462 1.050893,-0.80367 1.912874,-0.80367 0.85408,0 1.443217,0.27124 1.962584,0.90369 0.439107,0.53449 0.480848,0.86284 0.149822,1.18289 -0.338814,0.32776 -0.52942,0.28147 -1.041336,-0.25284 -0.251846,-0.26285 -0.630989,-0.53095 -0.842529,-0.59577 -0.842338,-0.25823 -1.724686,0.62564 -1.437391,1.43996 0.178298,0.50555 0.771615,1.15257 1.727126,1.88394 0.957252,0.73254 1.764744,1.6918 1.962108,2.33091 0.224202,0.72618 0.0969,1.96913 -0.258355,2.52328 -0.542454,0.84635 -1.063133,1.11773 -2.22105,1.15783 -0.760672,0.0264 -1.126146,-0.0223 -1.408991,-0.18699 z M 5.2918148,290.38864 c 0,-4.43926 -0.00212,-4.54779 0.00968,-5.19302 0.10149,0.003 0.9655232,0 1.1803173,8.5e-4 0.5900435,1.07527 2.9922855,4.61464 2.9922855,4.61464 l 2.3092634,3.43987 -0.0024,-4.21027 v -3.80956 h 0.508885 0.508884 v 5.16719 c 0,4.28341 4.76e-4,4.82564 -0.01232,5.22182 -0.07756,-5.8e-4 -0.834955,10e-4 -1.00219,-5.8e-4 -0.364663,-0.54702 -4.120546,-5.96474 -4.590319,-6.64014 l -0.7046838,-1.01312 -0.021733,3.94129 -0.033798,3.65801 H 5.8631084 5.2926572 Z m 29.5153192,0.62188 v -4.55528 H 33.789346 32.77152 v -0.6119 -0.61191 h 2.608241 2.607998 v 0.61191 0.6119 h -1.017921 -1.017772 v 4.55528 4.55528 h -0.572305 -0.572627 z m 8.014906,-0.61191 v -5.16718 h 2.798911 2.798808 v 0.61191 0.6119 h -2.226406 -2.226148 v 1.49577 1.49575 h 2.162569 2.162762 v 0.54393 0.54391 h -2.162762 -2.162569 v 1.90369 1.9037 h 2.162569 2.162762 v 0.6119 0.61191 h -2.73517 -2.735326 z"
       id="path877"
       inkscape:connector-curvature="0"
       sodipodi:nodetypes="sssscccscssscscssssccccccsccssccccccccccsccccccccsccscccccscccccccccccccccccccccccccccccccccccccccccc" />
  </g>
</svg>
