<?xml version="1.0" encoding="UTF-8" standalone="no"?>
<!-- Created with Inkscape (http://www.inkscape.org/) -->

<svg
   xmlns:dc="http://purl.org/dc/elements/1.1/"
   xmlns:cc="http://creativecommons.org/ns#"
   xmlns:rdf="http://www.w3.org/1999/02/22-rdf-syntax-ns#"
   xmlns:svg="http://www.w3.org/2000/svg"
   xmlns="http://www.w3.org/2000/svg"
   xmlns:sodipodi="http://sodipodi.sourceforge.net/DTD/sodipodi-0.dtd"
   xmlns:inkscape="http://www.inkscape.org/namespaces/inkscape"
   version="1.1"
   id="svg64"
   width="600"
   height="225"
   viewBox="0 0 600 225"
   sodipodi:docname="Legba.svg"
   inkscape:version="0.92.2 (5c3e80d, 2017-08-06)">
  <metadata
     id="metadata70">
    <rdf:RDF>
      <cc:Work
         rdf:about="">
        <dc:format>image/svg+xml</dc:format>
        <dc:type
           rdf:resource="http://purl.org/dc/dcmitype/StillImage" />
        <dc:title></dc:title>
      </cc:Work>
    </rdf:RDF>
  </metadata>
  <defs
     id="defs68" />
  <sodipodi:namedview
     pagecolor="#ffffff"
     bordercolor="#666666"
     borderopacity="1"
     objecttolerance="10"
     gridtolerance="10"
     guidetolerance="10"
     inkscape:pageopacity="0"
     inkscape:pageshadow="2"
     inkscape:window-width="2560"
     inkscape:window-height="1340"
     id="namedview66"
     showgrid="false"
     inkscape:zoom="1.4948007"
     inkscape:cx="167.65797"
     inkscape:cy="241.35656"
     inkscape:window-x="2560"
     inkscape:window-y="27"
     inkscape:window-maximized="1"
     inkscape:current-layer="svg64" />
  <g
     id="g102"
     transform="translate(-719.97324,-583.12293)" />
  <path
     style="fill:#535360;fill-opacity:1;stroke:none;stroke-width:0.92290121"
     d="m 209.23065,216.64899 c -17.99151,-1.96648 -28.62901,-11.64592 -28.44396,-25.8823 0.11537,-8.84811 4.88435,-15.79687 13.70823,-19.97585 5.86429,-2.77688 10.93363,-3.52476 18.42854,-2.71768 5.65925,0.60894 8.46324,2.34563 3.78824,2.34563 -3.60915,0 -10.04567,2.68392 -12.84385,5.35639 -3.72237,3.55468 -5.16689,6.76512 -5.79851,12.89325 -1.78452,17.30315 10.89642,28.38015 28.93012,25.27007 16.38776,-2.82591 31.96597,-15.01122 49.6685,-38.85013 4.09958,-5.52023 20.92156,-30.83528 24.62007,-37.05138 0.45404,-0.76249 -2.10128,1.31873 -5.67957,4.62618 -21.91206,20.25503 -45.31426,16.77912 -45.39063,-6.7419 l -0.0174,-6.27823 -6.67398,5.8468 c -11.91507,10.43665 -21.33349,15.90418 -33.0701,19.19633 -15.40077,4.31977 -26.72555,3.17495 -34.00992,-3.43823 -6.14557,-5.58055 -7.72034,-9.5314 -7.72034,-19.37109 v -8.47388 l -5.0634,4.65959 c -2.78508,2.56226 -14.26512,13.81763 -25.51143,25.01152 -17.50431,17.42267 -20.65626,20.98264 -21.89548,24.73212 -2.78815,8.43529 -10.29715,14.8177 -17.434088,14.8177 -4.131186,0 -5.196803,-2.05637 -2.541927,-4.90463 3.892235,-4.17536 4.847635,-10.69036 2.779154,-18.9469 -1.486454,-5.93026 -7.766459,-12.16015 -14.569187,-14.45146 -2.784821,-0.93799 -8.377664,-1.90641 -12.428338,-2.15349 -6.427576,-0.39073 -9.001911,-0.009 -20.231891,2.98994 -13.754764,3.67522 -25.112444,4.97565 -29.251272,3.34951 -3.328123,-1.30745 -3.458222,-5.01343 -0.25022,-7.12619 2.471354,-1.6274 18.875816,-3.05171 35.990392,-3.12624 5.764969,-0.0226 10.819396,-0.57029 13.363921,-1.4408 11.594187,-3.97068 25.362006,-20.25114 41.064256,-48.559754 13.53732,-24.403452 17.94354,-33.302467 16.6879,-33.703359 -0.66847,-0.213404 -2.87161,-0.88615 -4.89718,-1.494942 -5.7899,-1.740355 -14.03939,-6.42693 -17.84342,-10.136995 -5.55718,-5.420267 -7.934061,-11.239503 -7.934061,-19.42793 0,-6.053929 0.365194,-7.588013 2.859551,-12.027517 2.38671,-4.246618 3.80876,-5.586107 8.59675,-8.095437 4.69029,-2.458755 6.78727,-3.006904 11.50232,-3.006904 6.41668,0 11.85356,1.502632 11.26098,3.112059 -0.21268,0.578204 -0.9564,0.909355 -1.65232,0.735773 -4.3371,-1.081108 -11.39743,-1.144853 -15.56299,-0.140518 -16.778031,4.044982 -19.754307,25.73857 -5.27245,38.43006 4.27996,3.751231 13.19143,8.243036 18.24378,9.195509 3.19586,0.602464 3.20822,0.591213 8.84056,-8.017429 11.07918,-16.933845 24.45706,-29.041612 41.27767,-37.358605 12.80961,-6.3339682 22.10102,-8.7719062 33.60225,-8.8170412 17.18159,-0.06727 25.75796,5.4671072 25.77138,16.6307622 0.008,8.188064 -1.61966,11.998686 -7.77884,18.190073 -12.70667,12.772277 -35.84773,20.882812 -70.46747,24.697374 l -10.58709,1.166524 -3.09706,6.013734 C 125.55642,114.47324 105.94558,135.36599 78.609179,146.31142 l -6.341411,2.53913 10.023599,0.64452 c 20.864393,1.34067 31.071323,7.04969 34.879853,19.50612 0.46404,1.51879 2.80012,-0.51105 14.08813,-12.24399 7.442,-7.73574 19.52608,-19.71943 26.85435,-26.63022 7.79881,-7.35518 14.70058,-14.7471 16.64428,-17.82472 8.70482,-13.788084 23.58304,-25.365633 39.234,-30.529016 20.02679,-6.606853 35.34962,-0.195986 32.45094,13.576312 -1.01861,4.838524 -8.36355,11.696484 -16.95651,15.833344 -7.28881,3.50875 -20.10493,7.58207 -33.75031,10.72562 l -7.05276,1.62497 -0.57707,3.87267 c -0.77272,5.17342 0.89573,12.19227 3.80961,16.03145 9.31536,12.27348 31.32158,6.93315 53.03194,-12.86897 4.66738,-4.257 6.91866,-7.17679 8.87117,-11.50383 7.70043,-17.06727 24.22375,-32.560583 40.57127,-38.04187 3.07786,-1.031981 7.77087,-1.705123 11.96824,-1.716604 8.89626,-0.0239 14.06247,2.602073 17.10075,8.693781 l 2.03756,4.086471 1.92531,-3.792656 c 1.05893,-2.085924 2.27732,-4.010831 2.70778,-4.27875 0.43117,-0.267481 5.25682,-0.776961 10.72399,-1.132146 l 9.93949,-0.645556 -2.31903,4.076155 c -1.2756,2.242214 -7.60501,13.444191 -14.06554,24.893115 -6.46031,11.44944 -15.04172,26.36062 -19.07031,33.13601 -4.02874,6.7766 -7.13049,12.51478 -6.89296,12.75421 0.83415,0.83823 11.33326,-3.60791 18.52084,-7.84323 3.99207,-2.35213 11.2173,-7.60831 16.05488,-11.67863 7.92844,-6.67149 9.03946,-8.00093 11.25571,-13.4742 4.06201,-10.02865 20.17619,-35.959275 56.30838,-90.61025 l 13.15076,-19.891698 11.04756,-0.574622 c 6.07569,-0.31604 11.1882,-0.452308 11.35964,-0.302872 0.32565,0.282732 -22.3191,34.714106 -49.55701,75.355387 -27.54901,41.104135 -33.09877,53.679275 -27.6514,62.657025 8.13107,13.40242 34.50591,-8.18754 46.59184,-38.13914 2.63386,-6.52763 2.90035,-9.2171 2.15454,-21.741994 -0.47804,-8.035034 4.30825,-13.068391 11.01873,-11.587007 6.69243,1.477131 10.12916,9.581508 8.97308,21.160221 -0.56344,5.6462 -0.54407,5.70777 2.41431,7.62785 1.64009,1.0647 4.58338,2.46614 6.54102,3.11444 4.61853,1.529 12.5106,0.80783 13.65448,-1.24778 0.47017,-0.84357 2.91827,-4.0256 5.44135,-7.07252 9.25826,-11.180767 22.77828,-19.804845 35.61385,-22.718096 10.95537,-2.48617 17.72102,-0.440167 23.06576,6.974916 l 2.67769,3.7151 2.33379,-3.543199 c 2.23382,-3.391581 2.60209,-3.568528 8.62756,-4.140205 9.40782,-0.892917 14.1195,-0.750121 14.1195,0.428088 0,0.571479 -5.82483,9.835312 -12.944,20.586006 -14.34878,21.66759 -21.07157,34.21839 -21.79748,40.69815 -0.56542,5.03545 0.6888,7.06657 4.36114,7.06657 10.00334,0 28.1594,-15.5804 50.39629,-43.24759 7.7864,-9.688194 11.06169,-10.884244 3.69448,-1.34991 -19.21439,24.8673 -36.85546,41.64799 -49.86457,47.43121 -5.48743,2.43933 -13.07575,3.14816 -17.54161,1.63775 -4.62873,-1.56485 -7.85903,-6.14971 -7.85903,-11.15616 v -3.63559 l -4.83302,4.10985 c -7.12964,6.06202 -12.05029,8.87707 -18.4493,10.55612 -10.65213,2.79392 -18.40229,-0.10312 -22.69418,-8.48462 -2.0199,-3.94443 -2.35445,-5.79291 -2.34311,-12.95211 0.009,-6.90357 0.43061,-9.35446 2.4246,-14.13394 l 2.41214,-5.78317 -4.72629,-0.0176 c -4.70903,-0.0172 -11.50118,-2.43804 -14.49235,-5.15938 -1.37747,-1.25188 -1.73381,-0.82486 -3.94374,4.72269 -7.62762,19.14946 -24.86405,35.02209 -44.2892,40.78617 -3.47382,1.0303 -8.76831,1.66216 -14.26845,1.70314 -7.44624,0.0527 -9.41266,-0.26575 -13.22426,-2.15119 -5.84788,-2.89288 -9.50337,-8.52428 -10.33619,-15.92366 l -0.60612,-5.38467 -8.13756,6.67342 c -10.4946,8.60591 -21.28102,15.14761 -30.14631,18.28235 -7.01723,2.48139 -7.08553,2.53774 -12.12008,9.96846 -15.71174,23.187 -33.11272,37.21881 -54.7771,44.17096 -8.72938,2.80105 -23.49158,5.28451 -28.99904,4.87846 -0.75996,-0.0543 -4.28141,-0.41802 -7.82535,-0.80563 z m 277.16926,-67.93908 c 11.3666,-4.77242 29.36335,-31.63231 33.18639,-49.530414 2.02423,-9.476091 0.83247,-14.30959 -4.03125,-16.351858 -6.38645,-2.681694 -13.57198,0.08727 -21.91245,8.444769 -14.60239,14.631113 -24.27014,36.959913 -21.60062,49.886063 1.6883,8.17074 6.65757,10.78433 14.35793,7.55144 z m -197.17979,-3.19838 c 13.50979,-9.34141 29.10334,-37.2608 29.10334,-52.107344 0,-4.614326 -2.08718,-9.525433 -4.6297,-10.893215 -2.60525,-1.400609 -8.69058,-0.498918 -13.3975,1.985443 -11.20359,5.9131 -25.34027,25.901926 -29.41635,41.593646 -2.80095,10.78367 -0.52553,20.57475 5.17895,22.2816 3.70657,1.10874 9.12228,-0.0653 13.16126,-2.86013 z m -89.89541,-27.51778 c 12.26451,-4.85806 24.7787,-14.63514 28.7533,-22.464884 2.9159,-5.7436 3.26078,-9.752107 1.03194,-11.99112 -2.53652,-2.549639 -5.15733,-2.443739 -10.91741,0.441219 -8.35794,4.18576 -19.80422,17.321615 -25.96227,29.794895 -1.53622,3.11045 -2.79259,5.88794 -2.79259,6.1708 0,1.16368 4.03087,0.36819 9.88703,-1.95091 z M 172.40653,62.582663 c 19.30259,-2.969287 35.70506,-11.24945 43.92783,-22.1752 4.48172,-5.956457 6.24575,-11.315826 6.24575,-18.982967 0,-5.368509 -0.30531,-6.491684 -2.30813,-8.504453 -2.80976,-2.823728 -7.18371,-3.6419532 -13.73736,-2.569977 -14.09611,2.305627 -31.41539,17.300323 -47.08003,40.761098 -4.26959,6.393982 -7.76196,12.134458 -7.76196,12.756518 0,1.281626 6.75027,0.862825 20.7139,-1.285019 z"
     id="path4703"
     inkscape:connector-curvature="0" />
</svg>
