<?xml version="1.0" encoding="UTF-8" standalone="no"?>
<!-- Created with Inkscape (http://www.inkscape.org/) -->

<svg
   xmlns:dc="http://purl.org/dc/elements/1.1/"
   xmlns:cc="http://creativecommons.org/ns#"
   xmlns:rdf="http://www.w3.org/1999/02/22-rdf-syntax-ns#"
   xmlns:svg="http://www.w3.org/2000/svg"
   xmlns="http://www.w3.org/2000/svg"
   xmlns:sodipodi="http://sodipodi.sourceforge.net/DTD/sodipodi-0.dtd"
   xmlns:inkscape="http://www.inkscape.org/namespaces/inkscape"
   width="300mm"
   height="300mm"
   viewBox="0 0 300 300"
   version="1.1"
   id="svg8"
   inkscape:version="0.92.2 (5c3e80d, 2017-08-06)"
   sodipodi:docname="Vertical-Center.svg">
  <defs
     id="defs2" />
  <sodipodi:namedview
     id="base"
     pagecolor="#ffffff"
     bordercolor="#666666"
     borderopacity="1.0"
     inkscape:pageopacity="0.0"
     inkscape:pageshadow="2"
     inkscape:zoom="0.7"
     inkscape:cx="330.99761"
     inkscape:cy="451.68303"
     inkscape:document-units="mm"
     inkscape:current-layer="layer1"
     showgrid="false"
     inkscape:window-width="2560"
     inkscape:window-height="1340"
     inkscape:window-x="2560"
     inkscape:window-y="27"
     inkscape:window-maximized="1" />
  <metadata
     id="metadata5">
    <rdf:RDF>
      <cc:Work
         rdf:about="">
        <dc:format>image/svg+xml</dc:format>
        <dc:type
           rdf:resource="http://purl.org/dc/dcmitype/StillImage" />
        <dc:title></dc:title>
      </cc:Work>
    </rdf:RDF>
  </metadata>
  <g
     inkscape:label="Layer 1"
     inkscape:groupmode="layer"
     id="layer1"
     transform="translate(0,3)">
    <g
       id="g891"
       transform="matrix(0.29569993,0,0,0.29569993,61.395179,191.69121)">
      <g
         transform="translate(-719.97324,-583.12293)"
         id="g102" />
      <path
         inkscape:connector-curvature="0"
         id="path4703"
         d="m 209.23065,216.64899 c -17.99151,-1.96648 -28.62901,-11.64592 -28.44396,-25.8823 0.11537,-8.84811 4.88435,-15.79687 13.70823,-19.97585 5.86429,-2.77688 10.93363,-3.52476 18.42854,-2.71768 5.65925,0.60894 8.46324,2.34563 3.78824,2.34563 -3.60915,0 -10.04567,2.68392 -12.84385,5.35639 -3.72237,3.55468 -5.16689,6.76512 -5.79851,12.89325 -1.78452,17.30315 10.89642,28.38015 28.93012,25.27007 16.38776,-2.82591 31.96597,-15.01122 49.6685,-38.85013 4.09958,-5.52023 20.92156,-30.83528 24.62007,-37.05138 0.45404,-0.76249 -2.10128,1.31873 -5.67957,4.62618 -21.91206,20.25503 -45.31426,16.77912 -45.39063,-6.7419 l -0.0174,-6.27823 -6.67398,5.8468 c -11.91507,10.43665 -21.33349,15.90418 -33.0701,19.19633 -15.40077,4.31977 -26.72555,3.17495 -34.00992,-3.43823 -6.14557,-5.58055 -7.72034,-9.5314 -7.72034,-19.37109 v -8.47388 l -5.0634,4.65959 c -2.78508,2.56226 -14.26512,13.81763 -25.51143,25.01152 -17.50431,17.42267 -20.65626,20.98264 -21.89548,24.73212 -2.78815,8.43529 -10.29715,14.8177 -17.434088,14.8177 -4.131186,0 -5.196803,-2.05637 -2.541927,-4.90463 3.892235,-4.17536 4.847635,-10.69036 2.779154,-18.9469 -1.486454,-5.93026 -7.766459,-12.16015 -14.569187,-14.45146 -2.784821,-0.93799 -8.377664,-1.90641 -12.428338,-2.15349 -6.427576,-0.39073 -9.001911,-0.009 -20.231891,2.98994 -13.754764,3.67522 -25.112444,4.97565 -29.251272,3.34951 -3.328123,-1.30745 -3.458222,-5.01343 -0.25022,-7.12619 2.471354,-1.6274 18.875816,-3.05171 35.990392,-3.12624 5.764969,-0.0226 10.819396,-0.57029 13.363921,-1.4408 11.594187,-3.97068 25.362006,-20.25114 41.064256,-48.559754 13.53732,-24.403452 17.94354,-33.302467 16.6879,-33.703359 -0.66847,-0.213404 -2.87161,-0.88615 -4.89718,-1.494942 -5.7899,-1.740355 -14.03939,-6.42693 -17.84342,-10.136995 -5.55718,-5.420267 -7.934061,-11.239503 -7.934061,-19.42793 0,-6.053929 0.365194,-7.588013 2.859551,-12.027517 2.38671,-4.246618 3.80876,-5.586107 8.59675,-8.095437 4.69029,-2.458755 6.78727,-3.006904 11.50232,-3.006904 6.41668,0 11.85356,1.502632 11.26098,3.112059 -0.21268,0.578204 -0.9564,0.909355 -1.65232,0.735773 -4.3371,-1.081108 -11.39743,-1.144853 -15.56299,-0.140518 -16.778031,4.044982 -19.754307,25.73857 -5.27245,38.43006 4.27996,3.751231 13.19143,8.243036 18.24378,9.195509 3.19586,0.602464 3.20822,0.591213 8.84056,-8.017429 11.07918,-16.933845 24.45706,-29.041612 41.27767,-37.358605 12.80961,-6.3339682 22.10102,-8.7719062 33.60225,-8.8170412 17.18159,-0.06727 25.75796,5.4671072 25.77138,16.6307622 0.008,8.188064 -1.61966,11.998686 -7.77884,18.190073 -12.70667,12.772277 -35.84773,20.882812 -70.46747,24.697374 l -10.58709,1.166524 -3.09706,6.013734 C 125.55642,114.47324 105.94558,135.36599 78.609179,146.31142 l -6.341411,2.53913 10.023599,0.64452 c 20.864393,1.34067 31.071323,7.04969 34.879853,19.50612 0.46404,1.51879 2.80012,-0.51105 14.08813,-12.24399 7.442,-7.73574 19.52608,-19.71943 26.85435,-26.63022 7.79881,-7.35518 14.70058,-14.7471 16.64428,-17.82472 8.70482,-13.788084 23.58304,-25.365633 39.234,-30.529016 20.02679,-6.606853 35.34962,-0.195986 32.45094,13.576312 -1.01861,4.838524 -8.36355,11.696484 -16.95651,15.833344 -7.28881,3.50875 -20.10493,7.58207 -33.75031,10.72562 l -7.05276,1.62497 -0.57707,3.87267 c -0.77272,5.17342 0.89573,12.19227 3.80961,16.03145 9.31536,12.27348 31.32158,6.93315 53.03194,-12.86897 4.66738,-4.257 6.91866,-7.17679 8.87117,-11.50383 7.70043,-17.06727 24.22375,-32.560583 40.57127,-38.04187 3.07786,-1.031981 7.77087,-1.705123 11.96824,-1.716604 8.89626,-0.0239 14.06247,2.602073 17.10075,8.693781 l 2.03756,4.086471 1.92531,-3.792656 c 1.05893,-2.085924 2.27732,-4.010831 2.70778,-4.27875 0.43117,-0.267481 5.25682,-0.776961 10.72399,-1.132146 l 9.93949,-0.645556 -2.31903,4.076155 c -1.2756,2.242214 -7.60501,13.444191 -14.06554,24.893115 -6.46031,11.44944 -15.04172,26.36062 -19.07031,33.13601 -4.02874,6.7766 -7.13049,12.51478 -6.89296,12.75421 0.83415,0.83823 11.33326,-3.60791 18.52084,-7.84323 3.99207,-2.35213 11.2173,-7.60831 16.05488,-11.67863 7.92844,-6.67149 9.03946,-8.00093 11.25571,-13.4742 4.06201,-10.02865 20.17619,-35.959275 56.30838,-90.61025 l 13.15076,-19.891698 11.04756,-0.574622 c 6.07569,-0.31604 11.1882,-0.452308 11.35964,-0.302872 0.32565,0.282732 -22.3191,34.714106 -49.55701,75.355387 -27.54901,41.104135 -33.09877,53.679275 -27.6514,62.657025 8.13107,13.40242 34.50591,-8.18754 46.59184,-38.13914 2.63386,-6.52763 2.90035,-9.2171 2.15454,-21.741994 -0.47804,-8.035034 4.30825,-13.068391 11.01873,-11.587007 6.69243,1.477131 10.12916,9.581508 8.97308,21.160221 -0.56344,5.6462 -0.54407,5.70777 2.41431,7.62785 1.64009,1.0647 4.58338,2.46614 6.54102,3.11444 4.61853,1.529 12.5106,0.80783 13.65448,-1.24778 0.47017,-0.84357 2.91827,-4.0256 5.44135,-7.07252 9.25826,-11.180767 22.77828,-19.804845 35.61385,-22.718096 10.95537,-2.48617 17.72102,-0.440167 23.06576,6.974916 l 2.67769,3.7151 2.33379,-3.543199 c 2.23382,-3.391581 2.60209,-3.568528 8.62756,-4.140205 9.40782,-0.892917 14.1195,-0.750121 14.1195,0.428088 0,0.571479 -5.82483,9.835312 -12.944,20.586006 -14.34878,21.66759 -21.07157,34.21839 -21.79748,40.69815 -0.56542,5.03545 0.6888,7.06657 4.36114,7.06657 10.00334,0 28.1594,-15.5804 50.39629,-43.24759 7.7864,-9.688194 11.06169,-10.884244 3.69448,-1.34991 -19.21439,24.8673 -36.85546,41.64799 -49.86457,47.43121 -5.48743,2.43933 -13.07575,3.14816 -17.54161,1.63775 -4.62873,-1.56485 -7.85903,-6.14971 -7.85903,-11.15616 v -3.63559 l -4.83302,4.10985 c -7.12964,6.06202 -12.05029,8.87707 -18.4493,10.55612 -10.65213,2.79392 -18.40229,-0.10312 -22.69418,-8.48462 -2.0199,-3.94443 -2.35445,-5.79291 -2.34311,-12.95211 0.009,-6.90357 0.43061,-9.35446 2.4246,-14.13394 l 2.41214,-5.78317 -4.72629,-0.0176 c -4.70903,-0.0172 -11.50118,-2.43804 -14.49235,-5.15938 -1.37747,-1.25188 -1.73381,-0.82486 -3.94374,4.72269 -7.62762,19.14946 -24.86405,35.02209 -44.2892,40.78617 -3.47382,1.0303 -8.76831,1.66216 -14.26845,1.70314 -7.44624,0.0527 -9.41266,-0.26575 -13.22426,-2.15119 -5.84788,-2.89288 -9.50337,-8.52428 -10.33619,-15.92366 l -0.60612,-5.38467 -8.13756,6.67342 c -10.4946,8.60591 -21.28102,15.14761 -30.14631,18.28235 -7.01723,2.48139 -7.08553,2.53774 -12.12008,9.96846 -15.71174,23.187 -33.11272,37.21881 -54.7771,44.17096 -8.72938,2.80105 -23.49158,5.28451 -28.99904,4.87846 -0.75996,-0.0543 -4.28141,-0.41802 -7.82535,-0.80563 z m 277.16926,-67.93908 c 11.3666,-4.77242 29.36335,-31.63231 33.18639,-49.530414 2.02423,-9.476091 0.83247,-14.30959 -4.03125,-16.351858 -6.38645,-2.681694 -13.57198,0.08727 -21.91245,8.444769 -14.60239,14.631113 -24.27014,36.959913 -21.60062,49.886063 1.6883,8.17074 6.65757,10.78433 14.35793,7.55144 z m -197.17979,-3.19838 c 13.50979,-9.34141 29.10334,-37.2608 29.10334,-52.107344 0,-4.614326 -2.08718,-9.525433 -4.6297,-10.893215 -2.60525,-1.400609 -8.69058,-0.498918 -13.3975,1.985443 -11.20359,5.9131 -25.34027,25.901926 -29.41635,41.593646 -2.80095,10.78367 -0.52553,20.57475 5.17895,22.2816 3.70657,1.10874 9.12228,-0.0653 13.16126,-2.86013 z m -89.89541,-27.51778 c 12.26451,-4.85806 24.7787,-14.63514 28.7533,-22.464884 2.9159,-5.7436 3.26078,-9.752107 1.03194,-11.99112 -2.53652,-2.549639 -5.15733,-2.443739 -10.91741,0.441219 -8.35794,4.18576 -19.80422,17.321615 -25.96227,29.794895 -1.53622,3.11045 -2.79259,5.88794 -2.79259,6.1708 0,1.16368 4.03087,0.36819 9.88703,-1.95091 z M 172.40653,62.582663 c 19.30259,-2.969287 35.70506,-11.24945 43.92783,-22.1752 4.48172,-5.956457 6.24575,-11.315826 6.24575,-18.982967 0,-5.368509 -0.30531,-6.491684 -2.30813,-8.504453 -2.80976,-2.823728 -7.18371,-3.6419532 -13.73736,-2.569977 -14.09611,2.305627 -31.41539,17.300323 -47.08003,40.761098 -4.26959,6.393982 -7.76196,12.134458 -7.76196,12.756518 0,1.281626 6.75027,0.862825 20.7139,-1.285019 z"
         style="fill:#535360;fill-opacity:1;stroke:none;stroke-width:0.92290121" />
    </g>
    <g
       transform="matrix(0.80521676,0,0,0.80521676,62.844209,-45.116353)"
       id="layer1-3"
       inkscape:label="Layer 1"
       style="fill:#535360;fill-opacity:1">
      <g
         transform="matrix(0.7461099,0,0,0.7461099,-18.055366,-14.977725)"
         id="g1007"
         style="fill:#535360;fill-opacity:1">
        <g
           transform="matrix(0.92414743,0,0,0.88470071,15.238302,124.80207)"
           style="fill:#535360;fill-opacity:1"
           id="g2167">
          <path
             style="fill:#535360;fill-opacity:1;fill-rule:nonzero;stroke:none;stroke-width:0.66666663"
             d="m 164.41681,28.557528 c 0.91668,0 1.93736,0.780363 1.92547,1.703132 -0.0147,1.14398 -0.97209,1.85135 -1.88876,1.85135 -0.91667,0 -1.81603,-1.040707 -1.81603,-1.888751 0,-0.811015 0.86265,-1.665731 1.77932,-1.665731 z m -2.00026,22.599222 c 0.32625,0.04475 0.33246,0.930273 0.33245,3.260123 0,2.073499 -0.13249,3.769193 -0.29505,3.769193 -0.60949,0 -2.3715,-3.005086 -2.3715,-4.044853 0,-0.59492 0.60062,-1.625421 1.33397,-2.289081 0.49442,-0.447425 0.80439,-0.722235 1.00013,-0.695382 z m 4.24848,1.029221 c 0.3989,0 0.90901,0.729219 1.13242,1.619326 0.2234,0.890107 0.088,2.163862 -0.30059,2.832089 -0.62578,1.076071 -0.70865,1.013066 -0.72655,-0.562402 -0.0112,-0.978345 -0.20339,-2.254179 -0.42596,-2.834166 -0.22256,-0.579993 -0.0782,-1.054847 0.32068,-1.054847 z m -8.79686,4.387002 2.42345,3.306528 c 1.87592,2.558087 2.42866,3.948445 2.44145,6.140692 0.009,1.558333 -0.0586,2.82161 -0.15029,2.808543 -0.23967,-0.03411 -4.66337,-5.273937 -5.75422,-6.815993 -0.78641,-1.111601 -0.77783,-1.602834 0.0589,-3.369554 z m 12.83548,1.720446 c 0.3006,-7.09e-4 0.53928,0.314549 0.99805,0.941952 1.02478,1.401479 1.04641,1.349754 -2.28492,5.788848 -2.67046,3.558458 -3.33423,3.852837 -3.33423,1.474569 0,-2.316838 1.52391,-5.720247 3.25181,-7.259952 0.70681,-0.629719 1.06869,-0.944821 1.36929,-0.945417 z m -15.84557,6.959361 c 0.0325,0.0036 0.0652,0.01248 0.0977,0.02702 0.43647,0.195234 2.36781,2.167122 4.29281,4.382848 2.73306,3.145833 3.50046,4.523258 3.50045,6.277829 0,1.235809 -0.22506,2.245361 -0.50006,2.244063 -0.275,-0.0011 -2.2999,-1.200216 -4.4999,-2.664476 -2.2,-1.46426 -4.25966,-2.750084 -4.57677,-2.857022 -0.31712,-0.106949 -0.22356,-1.892883 0.20709,-3.967279 0.44866,-2.161236 0.92175,-3.333692 1.38106,-3.437432 0.0328,-0.0074 0.0651,-0.0091 0.0977,-0.0055 z m 18.52944,0.681532 c 0.0363,0.0071 0.066,0.02308 0.0914,0.04848 0.32456,0.324564 0.76872,1.92761 0.9849,3.562796 0.39134,2.960031 0.37522,2.990029 -3.59604,6.457216 -4.14197,3.616222 -4.78525,3.600484 -4.78525,-0.105967 0,-1.841254 6.18037,-10.181394 7.30497,-9.962524 z m -19.97076,9.472847 3.49976,2.55435 c 5.35241,3.90753 5.83249,4.40449 5.83248,6.038881 0,1.568241 -0.93553,2.036361 -1.67611,0.83806 -0.23164,-0.374802 -2.04932,-1.884911 -4.03931,-3.355011 -2.7374,-2.02224 -3.61682,-3.08724 -3.61682,-4.375227 z m 21.30888,1.318038 c 0.0949,-0.01064 0.16677,0.0047 0.21264,0.05056 1.0431,1.043099 -0.81392,3.932629 -4.05871,6.314539 -3.76358,2.762719 -4.13073,2.876392 -4.13073,1.275792 0,-1.32586 6.55292,-7.481346 7.9768,-7.640891 z m -19.28992,7.837595 c 0.0124,-0.0025 0.0309,-3.55e-4 0.0554,0.0062 0.3434,0.0944 1.82729,1.080962 3.59188,2.400591 2.63101,1.9676 3.666,3.185153 3.66599,4.312201 0,1.970902 -0.73028,1.992207 -2.41998,0.07065 -1.81226,-2.06089 -4.912,-6.331969 -4.912,-6.767506 0,-0.0123 0.006,-0.01965 0.0187,-0.02216 z m 13.91434,84.319858 c 1.90601,0.0141 60.33352,0.31308 61.18591,0.86589 20.64003,13.38589 9.98778,31.78623 6.36359,31.69057 -4.48323,-0.11834 -5.56539,-5.59542 -2.02277,-6.02683 2.48171,-0.2635 1.76054,-2.44529 -1.01209,-1.878 -5.3891,1.10263 -4.58794,13.38654 3.42134,11.5462 9.15982,-2.10471 14.5474,-14.31154 2.516,-35.39977 1.82937,0.0902 2.73649,-0.0115 3.88593,-0.0111 7.4252,0.002 15.80727,0.13414 16.32012,0.50882 0.94306,0.68897 -0.004,9.01058 0.003,32.50762 0.005,17.25166 0.0543,32.86955 0.48414,33.60759 0.84631,1.453 1.78057,1.24555 2.63469,-0.0741 0.29664,-0.45834 0.70866,-15.53436 0.53885,-33.50023 l -0.31444,-33.24397 c 12.91982,-0.48896 31.63574,-1.04269 32.85956,-0.3006 1.89223,1.49584 -3.50656,4.57331 -4.18753,6.0936 -0.48224,1.4751 0.55685,1.89749 1.43371,1.07632 1.59367,-1.49246 4.07206,-4.60499 6.07628,-4.34406 2.3596,0.38577 1.38372,7.36328 1.84927,8.45125 0.46556,1.08791 1.16083,0.5387 1.3319,-0.61366 0.17107,-1.15235 -0.42843,-8.04312 1.27578,-8.40969 1.70422,-0.36657 3.55647,4.44276 5.48618,5.88859 0.64181,0.40968 1.76323,0.0114 1.15805,-1.3596 -2.12111,-3.31096 -4.04096,-6.01494 -3.60504,-7.03693 0.43592,-1.02198 3.35629,-0.72276 6.3554,-0.87754 0.80363,0.0392 1.33823,-1.06826 0.2812,-1.25155 -1.57431,-0.27297 -5.605,-0.0414 -6.5154,-1.2751 -1.08238,-1.46675 2.99364,-4.8666 4.20069,-6.64283 0.14828,-1.02171 -0.28145,-1.57068 -1.15805,-1.20307 -1.32354,0.55505 -3.77912,5.90253 -6.34986,5.3615 -1.82236,-0.38352 -0.64106,-6.74164 -1.15804,-8.5489 -0.34194,-1.19532 -1.37278,-0.60867 -1.60132,0.365 -0.0122,3.3481 -0.3136,7.57888 -1.48288,7.98443 -1.09454,0.37963 -3.50063,-3.83892 -4.80811,-5.05883 -1.46102,-1.36317 -2.21184,-0.64418 -1.60201,0.79165 0.49578,1.21206 4.73903,4.92457 3.82252,7.2655 -0.61558,1.53114 -9.84925,1.10019 -33.6623,0.54854 l 0.10735,-22.66017 c -0.11412,-11.91667 -0.007,-25.96189 0.23826,-31.21046 l 0.44534,-9.54349 3.26221,-3.726253 c 3.48483,-3.982311 4.10882,-6.352834 1.97255,-7.496134 -0.67206,-0.359674 -1.1061,-0.578912 -1.44271,-0.603264 -0.56101,-0.04059 -0.85162,0.460098 -1.52236,1.757153 -2.42479,4.689024 -8.08968,8.118508 -13.45328,8.145118 -2.57556,0.0128 -4.49794,1.36544 -3.95481,2.78083 0.50376,1.31279 3.66969,1.88127 7.84936,1.41016 l 3.14654,-0.35531 v 30.36894 c 0,0 1.82142,29.37013 0.0825,30.41583 -0.93888,0.5646 -13.63081,0.0911 -20.98031,-0.1133 12.40618,-22.12127 0.73366,-35.00347 -6.72293,-32.38772 -3.35142,1.17568 -3.0413,8.09904 1.14836,9.06747 2.10255,0.72266 2.8246,-0.8533 0.63076,-1.7687 -2.34232,-1.16206 -2.07073,-5.10283 0.30657,-5.05603 3.40978,0.0671 15.32284,17.56209 -3.66583,30.07303 -1.9176,0.68962 -7.653,0.26688 -8.35013,0.23805 -1.13167,-0.0468 -53.03975,-0.25562 -53.03975,-0.25562 0,0 -7.10447,0.0291 -7.36599,0.0373 -1.55646,0.0489 -53.50051,0.88801 -54.49512,0.82938 -1.38363,0.13946 -0.97365,0.13958 -2.64732,-0.57919 -12.731807,-9.56428 -10.796134,-28.81261 -9.060095,-30.12404 1.485179,-1.12193 5.641895,1.02938 2.726467,3.43809 -0.44919,1.14637 0.927132,1.53611 1.557338,1.49107 0.34084,-0.0244 3.77855,-2.76859 1.68371,-6.26488 -11.488205,-11.51882 -17.314908,14.68415 -2.219063,31.59259 0.714013,0.79975 0.245625,0.0153 0,0 -3.58847,-0.22395 -9.312451,-0.40251 -11.151396,-0.3356 -1.152782,-0.66342 -2.71992,-5.27328 -4.461456,-7.89701 -2.026587,-3.05324 -2.496103,-3.76792 -3.05026,-2.97823 -0.670436,0.95538 0.199,3.33726 2.085454,6.55626 0.935132,1.59568 2.2243,3.40649 1.581925,4.34406 -0.668552,0.70191 -2.748091,0.60293 -4.009528,0.57763 l -2.60907,-0.0526 0.08173,-9.07391 c -0.01645,-5.9254 -0.448395,-7.07674 -0.939178,-10.15646 -0.273392,-5.53324 2.927307,-13.29488 4.59132,-20.34338 0.505992,-1.29801 0.860045,-3.20726 4.189606,-15.70566 C 88.964755,99.314626 87.491991,94.395395 84.176491,91.731384 79.495148,88.800661 75.63029,87.612669 72.502525,87.620733 l -8e-6,-8.9e-5 c -17.943488,0.04627 -11.632466,39.444416 3.894554,14.837126 0.629495,-1.46711 -0.826963,-3.285831 -2.507944,-1.25363 -9.214421,17.13643 -14.491723,-9.34542 -1.105409,-11.30896 5.20524,-0.906607 12.233766,4.308332 11.974562,9.65639 -0.100963,2.08315 -1.843364,10.17847 -2.849405,13.30092 -0.177206,0.54999 -1.082157,4.29379 -2.101383,7.59379 -2.043294,6.53819 -5.46409,21.39338 -6.698937,21.81449 -1.234852,0.42111 -2.774808,-2.69066 -5.074766,-5.07269 -8.378166,-8.67716 -16.089068,-9.97454 -19.677787,-3.31068 -2.948157,5.47439 2.665302,14.72159 8.10771,13.35563 2.046696,-0.51369 3.977735,-3.9508 4.499898,-6.03126 0.755842,-2.34035 -1.766745,-3.20499 -2.435223,-0.97866 -0.534865,1.78134 -1.49872,4.05104 -2.812695,4.20761 -4.253368,0.50681 -7.148292,-7.83454 -3.580109,-10.64128 0.966115,-0.75994 2.666441,-1.12272 3.41596,-1.12272 6.398817,0.30729 12.385843,7.91812 16.214729,12.9082 3.55e-4,0.24461 0.121939,2.10656 -0.646208,3.87862 -0.768147,1.77207 -2.550286,5.72582 -3.638982,8.65626 -2.907268,7.8255 -3.095598,8.26216 -12.470469,8.26216 -6.122719,0 -11.30871,-0.37055 -11.586006,-0.85953 -0.396675,-0.6254 2.178598,-3.94235 4.056626,-6.63106 0.83787,-1.2157 0.08298,-3.25822 -2.044589,-1.041 -1.359545,1.41683 -4.227134,5.58147 -4.994422,5.30264 -0.882652,-0.32076 -0.752073,-4.90933 -0.761873,-7.2655 -0.448628,-1.81231 -1.59335,-1.90704 -1.793171,0.018 -10e-7,2.51098 -0.189746,7.29925 -0.874769,7.42756 -0.611312,0.1145 -3.826595,-3.38615 -5.286703,-5.04914 -1.16631,-1.12005 -2.355396,-0.39782 -1.37899,1.20931 1.188214,1.60866 4.445209,5.80668 4.128658,6.59574 -0.31425,0.6478 -5.694387,0.94884 -7.894387,1.36721 -3.205451,0.44939 -3.028103,1.74503 -0.347691,1.87074 3.004914,0.14093 7.858435,0.17888 8.117407,0.72655 0.212887,0.45021 -3.434218,5.55335 -4.357911,6.79937 -0.990059,1.92012 0.170055,2.45645 1.537597,1.11719 1.602713,-1.65359 4.939759,-5.51614 5.540893,-5.31649 0.560441,0.18613 0.798614,6.43183 0.772954,8.29679 -0.03135,2.27869 1.794662,1.55568 1.830572,0.27912 0,0 0.480134,-8.73828 1.095712,-8.86542 0.615577,-0.12715 5.329646,5.01797 5.329646,5.01797 2.053197,1.3641 2.329333,-0.24523 1.527901,-1.27926 -1.218285,-1.97996 -4.333023,-5.424 -3.958968,-6.04096 0.335011,-0.55255 2.478181,-1.33489 9.134161,-0.90455 2.487723,0.1164 5.153953,0.42179 8.753919,0.64275 3.102687,0.17564 2.974347,2.76631 6.152468,10.57202 4.360142,10.80557 3.755399,10.24282 -0.536777,14.26988 -2.734101,2.53691 -5.327175,4.70299 -9.478387,5.9336 -14.264328,2.20658 -3.969215,-19.43145 1.020909,-5.99248 0.860332,1.4461 2.031082,0.34953 1.822263,-0.56863 -0.606229,-2.31465 -1.362859,-3.96175 -1.966326,-4.61141 -5.35365,-5.86762 -13.176995,2.78054 -10.335842,9.68964 1.015623,2.52958 3.923061,4.39011 7.441418,4.41401 4.096248,0.0279 8.15099,-1.92072 12.784917,-6.14416 1.910961,-1.74173 3.633942,-3.16592 3.828063,-3.16592 0.194128,0 0.853507,1.57476 1.464874,3.49976 1.259646,3.96627 4.08915,11.84101 5.330339,14.83367 6.372292,15.36441 7.198557,18.00024 6.835383,21.77986 -0.574228,5.97609 -5.366357,10.46162 -10.319911,9.65777 -18.026958,-3.59578 -6.209601,-30.83053 -0.385093,-14.92162 0.565777,1.96221 2.366633,1.4009 2.234364,-0.3186 -0.245509,-4.11565 -3.612637,-7.80533 -6.777205,-7.84383 -3.727412,-0.0453 -6.969577,4.29264 -7.669978,10.26381 -0.541337,4.61508 0.569508,8.141 3.718632,11.79864 2.770234,3.21757 6.008076,4.5844 10.859454,4.5844 10.871699,-0.40211 13.160738,-12.00239 10.712735,-21.44043 -2.931868,-8.26497 -8.17313,-23.8746 -11.818133,-32.1102 l -1.077706,-3.21718 2.343108,-2.73651 c 1.288324,-1.50512 2.342409,-3.13282 2.342409,-3.61682 0,-1.48275 -1.813402,-0.82188 -3.398644,1.02299 -3.10902,3.80038 -2.907966,3.86681 -4.537297,-2.31817 -0.514454,-1.78773 -1.542464,-4.9997 -2.165796,-7.17199 -1.706754,-5.94798 -1.917074,-7.36146 1.513354,-7.15399 3.632899,0.40185 3.905933,0.41001 3.70755,6.87902 -0.104974,3.42302 0.347092,4.98954 1.208609,5.04844 0.760147,0.0196 1.160325,-1.96646 1.197525,-6.71279 0.02826,-3.60158 0.493964,-4.93623 2.007881,-4.98403 4.685786,-0.14812 6.130635,0.004 3.278821,5.09762 -1.676005,3.78974 -3.120531,8.10041 -1.677505,8.57384 1.42271,-0.10856 1.157165,-3.77786 6.87516,-13.04796 2.469979,-0.16686 12.744745,-1.95058 11.593037,-0.55881 -9.059787,10.94827 -11.847985,30.00982 -0.969499,35.65799 5.556937,2.88519 9.486637,-3.05744 4.948747,-8.21227 -0.79668,-0.90499 -2.90381,-0.21795 -1.79129,1.10106 5.45025,6.195 -5.782836,8.0972 -6.540341,-3.69288 -0.560986,-8.73145 7.047511,-23.4041 9.669041,-24.7185 1.17631,-0.58978 1.5038,-0.23607 2.39137,-0.22559 1.04086,0.0123 53.06687,-0.0225 54.27597,0.013 1.00273,0.0295 5.77434,-0.12776 7.68035,-0.11367 z m 2.90431,-82.690836 c 0.4612,-0.005 -0.41821,1.892726 -1.68166,3.627205 -0.28068,0.38533 -1.2569,1.540974 -2.16787,2.568204 l -1.65603,1.867279 v -1.658111 c 0,-1.529971 4.17714,-6.389378 5.50556,-6.404577 z m 110.95142,45.748176 c -0.3889,-0.0378 -0.74828,0.25133 -0.86922,1.04308 -0.24188,1.58349 0.0742,6.54813 -0.72447,6.99815 -0.79871,0.45 -5.53673,-4.04479 -6.41012,-4.52899 -0.87338,-0.4842 -1.95329,0.37622 -1.19545,1.24393 0.75782,0.86771 4.70118,4.87674 4.5179,5.54851 -0.18329,0.67175 -4.53902,1.0828 -6.54102,1.397 -1.58442,0.33537 -1.48646,1.3833 -0.19531,1.51335 0,0 6.46107,0.0517 6.99398,1.23077 0.53293,1.17906 -4.2327,5.00743 -4.53106,5.66002 -0.29836,0.65261 0.19134,1.94299 1.13658,1.40254 1.34161,-1.10587 5.26918,-3.9781 5.93568,-3.60989 0.69269,0.36821 1.34276,5.92821 1.58954,7.54324 0.25445,0.91706 1.24674,1.41102 1.59786,0.10527 0.0726,-1.9177 0.0832,-7.70523 0.98212,-8.11533 0.89892,-0.4101 4.34914,3.54123 5.53951,4.00607 1.19036,0.46485 1.44261,-0.54055 1.16566,-1.26194 -2.55359,-2.77032 -4.81088,-4.44671 -4.24571,-5.80824 0.51496,-1.283 5.88674,-1.34284 7.30429,-1.76755 1.01226,-0.61329 0.53471,-1.66496 -0.2909,-1.71906 -1.31813,-0.0864 -6.21682,1.03229 -7.16368,-0.3747 -1.00379,-1.4916 3.26164,-4.94558 3.33353,-6.7876 0.0546,-1.39828 -0.74757,-1.43927 -1.47664,-0.83529 -0.72907,0.604 -3.20251,5.00796 -4.36899,4.65366 -1.1665,-0.3543 -0.56265,-5.56677 -1.03892,-6.61098 -0.23814,-0.52209 -0.65623,-0.8882 -1.04516,-0.92602 z m 0.26805,10.80266 c 1.28308,-0.0262 1.5578,0.89627 1.584,1.86521 0.0262,0.96894 -0.62815,1.67161 -1.66227,1.73291 -1.03413,0.0613 -1.6363,-0.71245 -1.71491,-1.62902 -0.0786,-0.91656 0.51009,-1.94289 1.79318,-1.9691 z m -209.498229,9.2715 c 0.395958,3.0444 0.496914,7.302 0.706465,11.61925 -0.366143,1.74153 -0.649194,2.20946 -3.099439,2.38674 -1.558333,0.11274 -3.148613,-0.18097 -3.148613,-0.52361 0,-0.92588 4.869875,-12.74764 5.541587,-13.48238 z m 228.417649,13.90467 c 2.31462,-0.0448 1.99157,2.9985 0.0512,3.0565 -1.98033,0.0592 -2.22912,-3.0364 -0.0512,-3.0565 z m -263.625173,0.609 c 1.028931,-0.0185 1.707288,0.44242 1.707288,1.70522 0,1.26278 -0.737785,1.49013 -1.707288,1.52513 -0.969503,0.035 -1.621911,-0.40814 -1.62071,-1.52513 0.0012,-1.11702 0.591779,-1.68672 1.62071,-1.70522 z m 245.240493,11.22081 c -0.28034,-0.0158 -0.54539,0.17824 -0.7321,0.63859 -0.29386,3.43807 0.3726,7.52047 -1.09017,8.01974 -1.46276,0.49928 -2.91051,-2.55915 -6.10883,-4.39046 -0.78532,-0.12569 -1.38904,0.93744 -1.17398,1.45518 2.20502,3.13608 5.13402,4.60643 4.82612,5.64825 -0.3079,1.04179 -5.37086,0.25262 -6.57427,0.62889 -1.20342,0.37625 -1.35469,1.12162 -0.44327,1.55837 2.67942,0.74755 6.79933,0.0651 7.24195,1.43994 0.44261,1.37485 -3.09068,3.72004 -5.12671,6.28684 -0.32278,0.84823 -0.019,1.35128 0.96688,1.35128 2.91402,-1.21449 6.0202,-5.34503 7.11659,-4.86282 1.09669,0.48222 0.37912,5.08674 1.10194,7.22671 0.70557,1.85577 1.63984,1.66948 2.19142,0.15791 0.64191,-2.31841 -1.0074,-6.35853 0.37332,-7.23225 1.38071,-0.87373 4.1291,3.09306 5.82556,4.24363 0.98675,0.58381 2.19225,-0.33644 1.41847,-2.0058 -0.9821,-1.66259 -4.8939,-4.49377 -4.42995,-5.54851 0.46395,-1.05473 2.86226,-0.22524 6.96283,-0.70093 0.71153,-0.25623 0.64227,-1.11023 -0.11498,-1.54937 -3.40549,-0.64046 -7.09765,-0.0147 -7.59033,-1.26748 -0.49268,-1.25281 3.52268,-2.80396 5.18212,-5.73413 0.27294,-0.87996 -0.48075,-1.73733 -1.43994,-1.53136 -2.56551,1.629 -4.36333,4.87808 -5.74175,4.53106 -1.37841,-0.34701 -0.74811,-4.61774 -1.82226,-7.73993 -0.2433,-0.38096 -0.53835,-0.60755 -0.81866,-0.62335 z m 0.25418,11.9711 c 1.24161,-0.0524 2.10633,1.09518 1.24809,2.26761 -0.73337,1.00185 -2.17619,0.31934 -2.17619,-0.93572 0,-0.73333 0.41733,-1.33189 0.9281,-1.33189 z M 162.69747,230.967 c -0.33055,1.93241 -0.92404,3.77874 -1.91755,5.29711 -5.71998,6.12235 -11.93184,15.1808 -10.94118,28.92 0.87875,7.83275 4.14228,12.58987 9.21658,18.8321 3.863,4.09914 4.91873,7.38708 4.73469,9.98608 0,0 0.26262,2.80053 -0.93987,3.29891 -1.20249,0.49838 -3.1808,-3.14467 -6.0742,-5.16758 -1.16896,-0.4713 -1.93611,0.23061 -1.14212,1.53275 1.38978,2.35668 5.07593,5.50183 4.89607,6.834 -0.17985,1.33218 -6.5122,0.18957 -8.44709,0.88516 -1.93489,0.69558 -0.99668,1.58455 -0.088,1.68928 2.65549,0.30605 8.15677,-0.3762 8.67773,1.17397 0.52096,1.55017 -3.06442,2.38009 -5.65448,6.15039 -0.3086,1.1706 0.39905,1.75517 1.50574,1.28341 4.15525,-1.77133 5.17989,-5.54909 6.58811,-4.77348 1.40822,0.7756 0.35605,6.11907 1.03546,8.95893 0.22947,0.5984 1.16674,0.85631 1.81603,-0.006 0.46415,-3.12116 -0.65531,-8.12184 1.06662,-8.64656 1.72192,-0.52472 4.71854,3.46647 5.75006,4.35168 1.03152,0.88521 2.27349,-0.0691 1.46834,-1.24186 -0.94364,-1.37446 -5.2987,-4.9258 -4.79495,-6.35609 0.50374,-1.43029 6.34909,-0.47126 7.0958,-0.61089 0.74674,-0.13965 1.22566,-1.17617 -0.0249,-1.50019 -1.86808,-0.40064 -6.81576,-0.54293 -7.28904,-1.43163 -0.47328,-0.8887 4.17833,-4.56658 5.1738,-6.57219 0.0556,-0.11204 0.11378,-0.19855 0.12468,-0.30891 0.0228,-0.23003 0.0353,-0.52084 -0.13091,-0.68153 -0.14941,-0.1444 -0.4077,-0.10998 -0.61504,-0.0956 -0.20354,0.0142 -0.38658,0.0875 -0.58595,0.178 -0.69159,0.31384 -5.66889,4.68663 -6.60959,4.38631 -0.94066,-0.30032 -0.71714,-0.91647 -0.92394,-3.22618 -0.20739,-2.55861 0.1908,-4.49715 3.35016,-7.65821 10.55227,-10.65278 10.70647,-30.99751 1.95663,-43.60336 -2.64262,-3.90269 -3.24154,-5.64836 -4.11134,-7.20523 -0.35148,-0.75975 -0.44149,-3.53479 -0.50348,-4.62467 -0.0309,-0.54266 -0.16441,-5.76596 -0.11588,-8.07275 8.51123,11.4627 40.01533,18.33378 43.5684,5.96478 1.89547,-6.59862 -3.40961,-13.31177 -9.55831,-9.00795 -3.04579,3.48061 -1.58167,6.53828 2.28018,3.34901 3.27149,-2.70172 4.13433,0.35399 3.23294,4.6469 -1.85125,5.02075 -28.69263,6.37797 -39.21249,-11.53183 0.20607,-11.03143 0.35009,-28.82437 0.48314,-53.31901 0.006,-1.02783 0.16798,-2.66243 0.1738,-3.69402 0.0882,-15.66247 0.28419,-30.54938 0.22609,-37.72204 0.79144,-17.00203 36.81973,-19.0091 37.21549,-12.78187 0.24862,3.91217 -4.91271,7.31984 -7.93304,2.59262 -1.99473,-3.12204 -3.2121,-0.0241 -2.39498,1.73914 3.51767,7.59059 14.76347,3.15327 14.47671,-4.93848 -0.35635,-10.055218 -30.20268,-10.00467 -41.34958,3.26578 -0.0785,-1.70078 0.0718,-4.20034 0.0889,-5.17489 0.0857,-4.92537 0.26681,-10.239111 1.37307,-11.089135 2.2159,-1.30191 6.23078,-8.523542 7.47259,-12.054209 3.26959,-9.295961 -0.0308,-23.729874 -7.32022,-32.020126 -1.28037,-1.456173 -2.65901,-3.320972 -2.8397,-4.145972 -0.39871,-2.268094 -1.90257,-5.585877 1.1248,-11.388612 0.50373,-0.780579 6.93169,7.399212 8.67773,6.085285 2.04728,-1.54423 -7.51542,-8.245502 -6.2245,-10.06226 0.9472,-1.303053 10.32935,-4.26e-4 10.40995,-1.906067 -0.002,-2.485686 -10.6264,-0.147337 -10.98205,-1.509893 -0.50851,-1.108983 7.73647,-9.396202 5.86919,-10.800585 -1.69078,-1.099697 -7.69117,8.160715 -8.67773,7.710845 -1.21249,-0.59848 0.0386,-11.698079 -2.26553,-11.724529 v 0 c -2.0133,0.01811 -0.36385,11.380494 -1.44963,12.000188 -1.58391,0.834627 -8.82993,-8.842949 -10.08997,-7.373543 -0.99455,1.246347 7.93367,8.948935 7.03901,10.318527 -0.9,1.66716 -10.98347,-0.772091 -11.49596,0.783344 -0.43017,2.054295 10.39124,0.988449 11.47449,3.730406 0.89891,2.700797 -8.31997,8.844026 -6.03126,9.806687 2.05839,0.851298 7.07446,-7.319875 8.62509,-5.869191 0.36062,1.189552 1.71525,6.041624 -0.13852,9.679939 -0.87508,1.601906 -2.52981,3.911212 -3.67777,5.132252 -2.18258,2.32148 -4.72362,7.233451 -6.66777,12.886729 -3.06349,8.908113 0.91378,23.179519 8.67358,30.341926 2.34669,1.602302 2.57759,1.541017 3.06065,3.807286 -0.22722,2.557248 -0.37406,5.225588 -0.48656,7.660768 -0.0307,0.66488 0.0221,1.67427 -0.0625,4.90684 -13.86447,-11.767797 -28.56052,-12.427906 -37.15569,-9.54698 -7.7986,2.61393 -0.93027,21.57129 8.84372,9.27799 1.33966,-1.68496 -2.07475,-2.31766 -3.34713,-0.9493 -4.49664,4.83584 -8.58316,-5.02548 -1.87897,-6.05959 9.80433,-1.51231 32.14907,4.94768 33.61609,17.65169 -0.0925,4.91818 -0.12538,12.63846 -0.17027,37.27825 -0.005,2.9162 0.0523,1.24917 0.0462,4.5074 0.13439,30.89923 -0.0381,53.01588 -0.0381,53.01588 -3.10014,13.07024 -43.07027,18.85355 -38.62083,10.14033 1.60926,-3.15137 2.67807,-5.80156 6.52419,-2.62692 1.12481,0.92843 2.78442,-0.64001 1.32245,-2.24688 -5.03404,-5.53301 -11.74804,-0.051 -11.7811,4.74871 -0.11344,16.46939 34.96158,5.30749 42.87056,-3.599 -0.0118,2.3788 -0.3382,8.1386 -0.46561,8.1386 z m 0.0515,7.58827 v 2.35765 c 0,1.71341 -0.49919,2.82263 -1.83196,4.06217 -1.00833,0.9378 -2.73429,2.26831 -3.83429,2.95745 l -2.00027,1.25362 1.25432,-2.00026 c 0.68914,-1.1 1.9173,-2.74933 2.73028,-3.66599 0.81295,-0.91667 1.97375,-2.40963 2.57997,-3.31623 z m 2.97061,1.92546 c 0.031,-0.005 0.0646,-0.004 0.10112,0.004 0.48661,0.10738 1.47129,1.37998 3.2622,4.07809 1.35559,2.04229 2.3296,3.84989 2.16372,4.01577 -0.60724,0.60724 -5.82971,-5.73898 -5.82971,-7.08403 0,-0.62967 0.0856,-0.97944 0.30267,-1.01399 z m -3.62928,7.7053 c 1.12885,0 0.72279,2.34626 -0.66352,3.8343 -0.72741,0.78078 -2.6018,2.28603 -4.16606,3.34531 -4.33259,2.93397 -4.42472,2.97051 -4.04693,1.52583 0.52182,-1.99545 7.36326,-8.70544 8.87651,-8.70544 z m 3.85161,0 c 0.28894,0 2.3884,1.74014 4.66612,3.86755 2.648,2.47325 4.14044,4.39687 4.14044,5.3338 0,0.80593 -0.0738,1.45376 -0.16554,1.43786 -0.0917,-0.0159 -2.182,-1.44226 -4.64465,-3.168 -3.94417,-2.76398 -4.4801,-3.39615 -4.4999,-5.30472 -0.0123,-1.19167 0.21458,-2.16649 0.50353,-2.16649 z m -3.82599,8.00036 c 0.54116,0 0.66465,0.67592 0.38302,2.08407 -0.22916,1.14583 -0.41626,2.51749 -0.41626,3.04888 0,0.53138 -1.69537,2.74268 -3.76781,4.91546 -2.07248,2.17278 -3.96433,3.95135 -4.20276,3.95135 -0.60148,0 -1.87972,-6.5125 -1.41016,-7.18377 0.78814,-1.12671 8.64604,-6.81599 9.41397,-6.81599 z m 3.9375,0.6656 c 0.91381,0 8.25108,5.22816 8.85712,6.31107 0.27982,0.50001 0.26442,2.06032 -0.0346,3.46652 -0.29901,1.40622 -0.6759,2.20907 -0.83598,1.78348 -0.16007,-0.4256 -2.1653,-2.15024 -4.45696,-3.83222 -3.73577,-2.74188 -4.16606,-3.2994 -4.16606,-5.39267 0,-1.28409 0.28613,-2.33618 0.63651,-2.33618 z m -0.25973,9.33432 c 0.20782,0 2.02264,1.42056 4.03308,3.15624 3.10673,2.68215 3.59505,3.40588 3.24627,4.83166 -0.85647,3.50111 -1.91207,3.6826 -4.90231,0.83806 -2.45746,-2.33774 -2.75382,-2.95285 -2.75382,-5.72236 0,-1.70677 0.16898,-3.1036 0.37678,-3.1036 z m -3.54894,0.6663 c 0.27753,0 0.50099,1.42564 0.49799,3.16731 -0.005,2.7109 -0.34647,3.52606 -2.37497,5.66626 -1.30324,1.375 -2.60208,2.50032 -2.8868,2.50032 -0.28472,0 -0.8764,-0.78644 -1.31458,-1.74815 -0.64964,-1.4258 -0.60752,-2.03882 0.22856,-3.31484 1.43348,-2.18777 5.24271,-6.2709 5.8498,-6.2709 z m 4.57608,11.45095 c 0.41405,-0.006 1.02635,0.55289 1.89083,1.65187 1.30526,1.65936 1.32125,1.84656 0.27705,3.0004 -1.92542,2.12756 -2.9062,1.53004 -2.9062,-1.76963 0,-1.93327 0.20597,-2.87511 0.73832,-2.88264 z m -5.05814,0.54854 c 0.70741,0 0.98628,0.75726 0.98628,2.66794 0,2.80395 -0.62193,3.32567 -1.99264,1.67404 -1.03951,-1.25251 -0.3232,-4.34198 1.00636,-4.34198 z m 2.71296,21.38785 c 1.05363,10e-4 1.79234,0.58656 1.79248,1.72875 1.4e-4,1.14219 -0.81347,1.62834 -1.81326,1.62834 -0.99979,0 -1.77493,-0.48748 -1.77724,-1.68513 -0.002,-1.19766 0.7444,-1.67332 1.79802,-1.67196 z"
             id="path914"
             inkscape:connector-curvature="0"
             sodipodi:nodetypes="cssscsssccsccccscscccccsccscscccccscccsccccsccccssscccssccscccsccscssscsscscccccccccccccccccccccsscccccccccccccccccsscsccscscscccsccscsccccccscsccscscccccccssccccssccccccccccccccccscsccccccccccccccsccsccccsccccccsccscscccccccccssscsssszsccscscscccccccccccccccccscccsccscccscccscccccscccsccccccccccccccccccccccccsccsccscccscccccccccccccccccccccccccccscscscsccsccssssccsccccccccccscccccccccsccsscssssccscsssscssccccccsscsccsscssscssscscssssccsssscccssssccsssccccssccccccccccccccccc" />
          <path
             style="color:#000000;font-style:normal;font-variant:normal;font-weight:normal;font-stretch:normal;font-size:medium;line-height:normal;font-family:sans-serif;font-variant-ligatures:normal;font-variant-position:normal;font-variant-caps:normal;font-variant-numeric:normal;font-variant-alternates:normal;font-feature-settings:normal;text-indent:0;text-align:start;text-decoration:none;text-decoration-line:none;text-decoration-style:solid;text-decoration-color:#000000;letter-spacing:normal;word-spacing:normal;text-transform:none;writing-mode:lr-tb;direction:ltr;text-orientation:mixed;dominant-baseline:auto;baseline-shift:baseline;text-anchor:start;white-space:normal;shape-padding:0;clip-rule:nonzero;display:inline;overflow:visible;visibility:visible;opacity:1;isolation:auto;mix-blend-mode:normal;color-interpolation:sRGB;color-interpolation-filters:linearRGB;solid-color:#000000;solid-opacity:1;vector-effect:none;fill:#535360;fill-opacity:1;fill-rule:nonzero;stroke:none;stroke-width:2.63366032;stroke-linecap:butt;stroke-linejoin:miter;stroke-miterlimit:4;stroke-dasharray:none;stroke-dashoffset:0;stroke-opacity:1;color-rendering:auto;image-rendering:auto;shape-rendering:auto;text-rendering:auto;enable-background:accumulate"
             d="m 132.52336,126.12833 c -8.76909,1.3342 -13.78944,8.01116 -14.02076,16.9777 0.60759,10.0008 5.77658,15.15273 15.11459,15.72991 10.26643,-0.17834 16.78142,-7.00598 17.15338,-15.93216 -0.46102,-10.16249 -8.78769,-16.28615 -18.24721,-16.77545 z m 0.88354,4.24283 c 8.762,0.91437 14.02914,4.59995 13.92683,12.19169 -0.78816,8.51376 -5.47671,13.12301 -13.40853,12.83624 -8.64265,-0.99574 -11.87295,-4.92256 -11.89424,-12.44287 0.67393,-8.55867 3.50773,-12.79231 11.37594,-12.58506 z"
             id="path1348"
             inkscape:connector-curvature="0"
             sodipodi:nodetypes="cccccccccc" />
          <path
             style="color:#000000;font-style:normal;font-variant:normal;font-weight:normal;font-stretch:normal;font-size:medium;line-height:normal;font-family:sans-serif;font-variant-ligatures:normal;font-variant-position:normal;font-variant-caps:normal;font-variant-numeric:normal;font-variant-alternates:normal;font-feature-settings:normal;text-indent:0;text-align:start;text-decoration:none;text-decoration-line:none;text-decoration-style:solid;text-decoration-color:#000000;letter-spacing:normal;word-spacing:normal;text-transform:none;writing-mode:lr-tb;direction:ltr;text-orientation:mixed;dominant-baseline:auto;baseline-shift:baseline;text-anchor:start;white-space:normal;shape-padding:0;clip-rule:nonzero;display:inline;overflow:visible;visibility:visible;opacity:1;isolation:auto;mix-blend-mode:normal;color-interpolation:sRGB;color-interpolation-filters:linearRGB;solid-color:#000000;solid-opacity:1;vector-effect:none;fill:#535360;fill-opacity:1;fill-rule:nonzero;stroke:none;stroke-width:2.63366032;stroke-linecap:butt;stroke-linejoin:miter;stroke-miterlimit:4;stroke-dasharray:none;stroke-dashoffset:0;stroke-opacity:1;color-rendering:auto;image-rendering:auto;shape-rendering:auto;text-rendering:auto;enable-background:accumulate"
             d="m 207.4503,148.80056 c 3.66516,-9.52439 -3.37168,-20.15764 -12.39249,-22.18418 -9.02081,-2.02655 -13.61542,0.54622 -17.7229,8.95219 -3.76485,9.55286 0.0491,18.18509 8.15318,21.94533 9.56505,3.46392 17.88942,-0.16148 21.96221,-8.71334 z m -3.72144,-0.72087 c -4.19851,7.74476 -9.93926,9.46182 -16.91371,6.46146 -7.56372,-3.9869 -9.51347,-10.31186 -6.21252,-17.52988 4.228,-7.60335 8.86907,-9.25323 15.82483,-6.3944 7.64894,3.89855 10.50453,10.27313 7.3014,17.46282 z"
             id="path1348-3"
             inkscape:connector-curvature="0"
             sodipodi:nodetypes="czcccccccc" />
          <path
             style="color:#000000;font-style:normal;font-variant:normal;font-weight:normal;font-stretch:normal;font-size:medium;line-height:normal;font-family:sans-serif;font-variant-ligatures:normal;font-variant-position:normal;font-variant-caps:normal;font-variant-numeric:normal;font-variant-alternates:normal;font-feature-settings:normal;text-indent:0;text-align:start;text-decoration:none;text-decoration-line:none;text-decoration-style:solid;text-decoration-color:#000000;letter-spacing:normal;word-spacing:normal;text-transform:none;writing-mode:lr-tb;direction:ltr;text-orientation:mixed;dominant-baseline:auto;baseline-shift:baseline;text-anchor:start;white-space:normal;shape-padding:0;clip-rule:nonzero;display:inline;overflow:visible;visibility:visible;opacity:1;isolation:auto;mix-blend-mode:normal;color-interpolation:sRGB;color-interpolation-filters:linearRGB;solid-color:#000000;solid-opacity:1;vector-effect:none;fill:#535360;fill-opacity:1;fill-rule:nonzero;stroke:none;stroke-width:2.63366032;stroke-linecap:butt;stroke-linejoin:miter;stroke-miterlimit:4;stroke-dasharray:none;stroke-dashoffset:0;stroke-opacity:1;color-rendering:auto;image-rendering:auto;shape-rendering:auto;text-rendering:auto;enable-background:accumulate"
             d="m 185.60028,206.48821 c 9.5149,3.68971 14.04488,-0.53072 19.3635,-5.62732 5.31862,-5.0966 2.34146,-20.3247 -6.05389,-24.45385 -9.54312,-3.78947 -16.39407,0.36022 -20.1752,8.45478 -3.48857,9.55609 -1.67574,17.53156 6.86559,21.62639 z m 1.4652,-2.88133 c -5.9876,-3.54681 -7.74009,-11.19097 -5.16952,-17.26212 3.42429,-6.83697 10.73198,-9.17747 16.64292,-6.03703 6.35535,5.24543 6.88378,9.65662 4.54434,15.84378 -3.51526,6.56421 -10.17966,10.27404 -16.01774,7.45537 z"
             id="path1348-3-6"
             inkscape:connector-curvature="0"
             sodipodi:nodetypes="czcccccccc" />
          <path
             style="color:#000000;font-style:normal;font-variant:normal;font-weight:normal;font-stretch:normal;font-size:medium;line-height:normal;font-family:sans-serif;font-variant-ligatures:normal;font-variant-position:normal;font-variant-caps:normal;font-variant-numeric:normal;font-variant-alternates:normal;font-feature-settings:normal;text-indent:0;text-align:start;text-decoration:none;text-decoration-line:none;text-decoration-style:solid;text-decoration-color:#000000;letter-spacing:normal;word-spacing:normal;text-transform:none;writing-mode:lr-tb;direction:ltr;text-orientation:mixed;dominant-baseline:auto;baseline-shift:baseline;text-anchor:start;white-space:normal;shape-padding:0;clip-rule:nonzero;display:inline;overflow:visible;visibility:visible;opacity:1;isolation:auto;mix-blend-mode:normal;color-interpolation:sRGB;color-interpolation-filters:linearRGB;solid-color:#000000;solid-opacity:1;vector-effect:none;fill:#535360;fill-opacity:1;fill-rule:nonzero;stroke:none;stroke-width:2.63366032;stroke-linecap:butt;stroke-linejoin:miter;stroke-miterlimit:4;stroke-dasharray:none;stroke-dashoffset:0;stroke-opacity:1;color-rendering:auto;image-rendering:auto;shape-rendering:auto;text-rendering:auto;enable-background:accumulate"
             d="m 138.83691,209.01757 c 10.10588,-1.4208 14.54534,-9.91295 13.75303,-18.84741 -1.74366,-9.86635 -8.18267,-13.49993 -17.52561,-13.00887 -10.17917,1.34748 -15.15699,7.97771 -14.50897,16.88813 1.61647,10.0437 8.82792,15.56037 18.28155,14.96815 z m -0.73633,-3.78949 c -6.65981,8.5e-4 -12.8162,-4.47971 -13.1322,-11.49631 -0.18748,-8.5481 4.41473,-12.69592 10.98422,-13.04653 6.72963,0.004 11.97571,4.9737 12.49591,10.83058 0.0374,7.2364 -3.94025,13.28991 -10.34793,13.71226 z"
             id="path1348-3-7"
             inkscape:connector-curvature="0"
             sodipodi:nodetypes="cccccccccc" />
          <path
             style="color:#000000;font-style:normal;font-variant:normal;font-weight:normal;font-stretch:normal;font-size:medium;line-height:normal;font-family:sans-serif;font-variant-ligatures:normal;font-variant-position:normal;font-variant-caps:normal;font-variant-numeric:normal;font-variant-alternates:normal;font-feature-settings:normal;text-indent:0;text-align:start;text-decoration:none;text-decoration-line:none;text-decoration-style:solid;text-decoration-color:#000000;letter-spacing:normal;word-spacing:normal;text-transform:none;writing-mode:lr-tb;direction:ltr;text-orientation:mixed;dominant-baseline:auto;baseline-shift:baseline;text-anchor:start;white-space:normal;shape-padding:0;clip-rule:nonzero;display:inline;overflow:visible;visibility:visible;opacity:1;isolation:auto;mix-blend-mode:normal;color-interpolation:sRGB;color-interpolation-filters:linearRGB;solid-color:#000000;solid-opacity:1;vector-effect:none;fill:#535360;fill-opacity:1;fill-rule:nonzero;stroke:none;stroke-width:0.45549423;stroke-linecap:butt;stroke-linejoin:miter;stroke-miterlimit:4;stroke-dasharray:none;stroke-dashoffset:0;stroke-opacity:1;color-rendering:auto;image-rendering:auto;shape-rendering:auto;text-rendering:auto;enable-background:accumulate"
             d="m 91.8621,159.14183 c -1.516623,0.23075 -2.384898,1.38554 -2.424905,2.93631 0.105083,1.72965 0.999066,2.62068 2.614084,2.7205 1.77559,-0.0308 2.902364,-1.21169 2.966695,-2.75548 -0.07973,-1.75761 -1.51984,-2.81671 -3.155874,-2.90133 z m 0.498696,1.46545 c 0.781928,0.0112 1.329366,0.63115 1.315627,1.24924 -0.01374,0.61808 -0.532577,1.71156 -1.30206,1.66389 -0.769483,-0.0477 -1.551083,-0.8127 -1.595276,-1.53219 -0.04419,-0.71949 0.799781,-1.39218 1.581709,-1.38094 z"
             id="path1348-5"
             inkscape:connector-curvature="0"
             sodipodi:nodetypes="ccccczzzzz" />
          <path
             style="color:#000000;font-style:normal;font-variant:normal;font-weight:normal;font-stretch:normal;font-size:medium;line-height:normal;font-family:sans-serif;font-variant-ligatures:normal;font-variant-position:normal;font-variant-caps:normal;font-variant-numeric:normal;font-variant-alternates:normal;font-feature-settings:normal;text-indent:0;text-align:start;text-decoration:none;text-decoration-line:none;text-decoration-style:solid;text-decoration-color:#000000;letter-spacing:normal;word-spacing:normal;text-transform:none;writing-mode:lr-tb;direction:ltr;text-orientation:mixed;dominant-baseline:auto;baseline-shift:baseline;text-anchor:start;white-space:normal;shape-padding:0;clip-rule:nonzero;display:inline;overflow:visible;visibility:visible;opacity:1;isolation:auto;mix-blend-mode:normal;color-interpolation:sRGB;color-interpolation-filters:linearRGB;solid-color:#000000;solid-opacity:1;vector-effect:none;fill:#535360;fill-opacity:1;fill-rule:nonzero;stroke:none;stroke-width:0.45549423;stroke-linecap:butt;stroke-linejoin:miter;stroke-miterlimit:4;stroke-dasharray:none;stroke-dashoffset:0;stroke-opacity:1;color-rendering:auto;image-rendering:auto;shape-rendering:auto;text-rendering:auto;enable-background:accumulate"
             d="m 92.074263,169.9318 c -1.516623,0.23075 -2.384898,1.38554 -2.424905,2.93631 0.105083,1.72965 0.999066,2.62068 2.614084,2.7205 1.77559,-0.0308 2.902364,-1.21169 2.966695,-2.75548 -0.07973,-1.75761 -1.51984,-2.81671 -3.155874,-2.90133 z m 0.498696,1.46545 c 0.781928,0.0112 1.329366,0.63115 1.315627,1.24924 -0.01374,0.61808 -0.532577,1.71156 -1.30206,1.66389 -0.769483,-0.0477 -1.551083,-0.8127 -1.595276,-1.53219 -0.04419,-0.71949 0.799781,-1.39218 1.581709,-1.38094 z"
             id="path1348-5-3"
             inkscape:connector-curvature="0"
             sodipodi:nodetypes="ccccczzzzz" />
          <path
             style="color:#000000;font-style:normal;font-variant:normal;font-weight:normal;font-stretch:normal;font-size:medium;line-height:normal;font-family:sans-serif;font-variant-ligatures:normal;font-variant-position:normal;font-variant-caps:normal;font-variant-numeric:normal;font-variant-alternates:normal;font-feature-settings:normal;text-indent:0;text-align:start;text-decoration:none;text-decoration-line:none;text-decoration-style:solid;text-decoration-color:#000000;letter-spacing:normal;word-spacing:normal;text-transform:none;writing-mode:lr-tb;direction:ltr;text-orientation:mixed;dominant-baseline:auto;baseline-shift:baseline;text-anchor:start;white-space:normal;shape-padding:0;clip-rule:nonzero;display:inline;overflow:visible;visibility:visible;opacity:1;isolation:auto;mix-blend-mode:normal;color-interpolation:sRGB;color-interpolation-filters:linearRGB;solid-color:#000000;solid-opacity:1;vector-effect:none;fill:#535360;fill-opacity:1;fill-rule:nonzero;stroke:none;stroke-width:0.45549423;stroke-linecap:butt;stroke-linejoin:miter;stroke-miterlimit:4;stroke-dasharray:none;stroke-dashoffset:0;stroke-opacity:1;color-rendering:auto;image-rendering:auto;shape-rendering:auto;text-rendering:auto;enable-background:accumulate"
             d="m 158.55168,227.81277 c -1.51662,0.23075 -2.3849,1.38554 -2.4249,2.93631 0.10508,1.72965 0.99906,2.62068 2.61408,2.7205 1.77559,-0.0308 2.90237,-1.21169 2.9667,-2.75548 -0.0797,-1.75761 -1.51984,-2.81671 -3.15588,-2.90133 z m 0.4987,1.46545 c 0.78193,0.0112 1.32936,0.63115 1.31563,1.24924 -0.0137,0.61808 -0.53258,1.71156 -1.30206,1.66389 -0.76949,-0.0477 -1.55109,-0.8127 -1.59528,-1.53219 -0.0442,-0.71949 0.79978,-1.39218 1.58171,-1.38094 z"
             id="path1348-5-5"
             inkscape:connector-curvature="0"
             sodipodi:nodetypes="ccccczzzzz" />
          <path
             style="color:#000000;font-style:normal;font-variant:normal;font-weight:normal;font-stretch:normal;font-size:medium;line-height:normal;font-family:sans-serif;font-variant-ligatures:normal;font-variant-position:normal;font-variant-caps:normal;font-variant-numeric:normal;font-variant-alternates:normal;font-feature-settings:normal;text-indent:0;text-align:start;text-decoration:none;text-decoration-line:none;text-decoration-style:solid;text-decoration-color:#000000;letter-spacing:normal;word-spacing:normal;text-transform:none;writing-mode:lr-tb;direction:ltr;text-orientation:mixed;dominant-baseline:auto;baseline-shift:baseline;text-anchor:start;white-space:normal;shape-padding:0;clip-rule:nonzero;display:inline;overflow:visible;visibility:visible;opacity:1;isolation:auto;mix-blend-mode:normal;color-interpolation:sRGB;color-interpolation-filters:linearRGB;solid-color:#000000;solid-opacity:1;vector-effect:none;fill:#535360;fill-opacity:1;fill-rule:nonzero;stroke:none;stroke-width:0.45549423;stroke-linecap:butt;stroke-linejoin:miter;stroke-miterlimit:4;stroke-dasharray:none;stroke-dashoffset:0;stroke-opacity:1;color-rendering:auto;image-rendering:auto;shape-rendering:auto;text-rendering:auto;enable-background:accumulate"
             d="m 169.63827,228.41341 c -1.51663,0.23075 -2.3849,1.38554 -2.42491,2.93631 0.10508,1.72965 0.99907,2.62068 2.61409,2.7205 1.77559,-0.0308 2.90236,-1.21169 2.96669,-2.75548 -0.0797,-1.75761 -1.51984,-2.81671 -3.15587,-2.90133 z m 0.49869,1.46545 c 0.78193,0.0112 1.32937,0.63115 1.31563,1.24924 -0.0137,0.61808 -0.53258,1.71156 -1.30206,1.66389 -0.76948,-0.0477 -1.55108,-0.8127 -1.59528,-1.53219 -0.0442,-0.71949 0.79978,-1.39218 1.58171,-1.38094 z"
             id="path1348-5-6"
             inkscape:connector-curvature="0"
             sodipodi:nodetypes="ccccczzzzz" />
          <path
             style="color:#000000;font-style:normal;font-variant:normal;font-weight:normal;font-stretch:normal;font-size:medium;line-height:normal;font-family:sans-serif;font-variant-ligatures:normal;font-variant-position:normal;font-variant-caps:normal;font-variant-numeric:normal;font-variant-alternates:normal;font-feature-settings:normal;text-indent:0;text-align:start;text-decoration:none;text-decoration-line:none;text-decoration-style:solid;text-decoration-color:#000000;letter-spacing:normal;word-spacing:normal;text-transform:none;writing-mode:lr-tb;direction:ltr;text-orientation:mixed;dominant-baseline:auto;baseline-shift:baseline;text-anchor:start;white-space:normal;shape-padding:0;clip-rule:nonzero;display:inline;overflow:visible;visibility:visible;opacity:1;isolation:auto;mix-blend-mode:normal;color-interpolation:sRGB;color-interpolation-filters:linearRGB;solid-color:#000000;solid-opacity:1;vector-effect:none;fill:#535360;fill-opacity:1;fill-rule:nonzero;stroke:none;stroke-width:0.45549423;stroke-linecap:butt;stroke-linejoin:miter;stroke-miterlimit:4;stroke-dasharray:none;stroke-dashoffset:0;stroke-opacity:1;color-rendering:auto;image-rendering:auto;shape-rendering:auto;text-rendering:auto;enable-background:accumulate"
             d="m 245.71087,169.98234 c -1.51662,0.23075 -2.38489,1.38554 -2.4249,2.93631 0.10508,1.72965 0.99906,2.62068 2.61408,2.7205 1.77559,-0.0308 2.90237,-1.21169 2.9667,-2.75548 -0.0797,-1.75761 -1.51984,-2.81671 -3.15588,-2.90133 z m 0.4987,1.46545 c 0.78193,0.0112 1.32937,0.63115 1.31563,1.24924 -0.0137,0.61808 -0.53258,1.71156 -1.30206,1.66389 -0.76949,-0.0477 -1.55109,-0.8127 -1.59528,-1.53219 -0.0442,-0.71949 0.79978,-1.39218 1.58171,-1.38094 z"
             id="path1348-5-2"
             inkscape:connector-curvature="0"
             sodipodi:nodetypes="ccccczzzzz" />
          <path
             style="color:#000000;font-style:normal;font-variant:normal;font-weight:normal;font-stretch:normal;font-size:medium;line-height:normal;font-family:sans-serif;font-variant-ligatures:normal;font-variant-position:normal;font-variant-caps:normal;font-variant-numeric:normal;font-variant-alternates:normal;font-feature-settings:normal;text-indent:0;text-align:start;text-decoration:none;text-decoration-line:none;text-decoration-style:solid;text-decoration-color:#000000;letter-spacing:normal;word-spacing:normal;text-transform:none;writing-mode:lr-tb;direction:ltr;text-orientation:mixed;dominant-baseline:auto;baseline-shift:baseline;text-anchor:start;white-space:normal;shape-padding:0;clip-rule:nonzero;display:inline;overflow:visible;visibility:visible;opacity:1;isolation:auto;mix-blend-mode:normal;color-interpolation:sRGB;color-interpolation-filters:linearRGB;solid-color:#000000;solid-opacity:1;vector-effect:none;fill:#535360;fill-opacity:1;fill-rule:nonzero;stroke:none;stroke-width:0.45549423;stroke-linecap:butt;stroke-linejoin:miter;stroke-miterlimit:4;stroke-dasharray:none;stroke-dashoffset:0;stroke-opacity:1;color-rendering:auto;image-rendering:auto;shape-rendering:auto;text-rendering:auto;enable-background:accumulate"
             d="m 245.40621,159.09984 c -1.51662,0.23075 -2.38489,1.38554 -2.4249,2.93631 0.10508,1.72965 0.99906,2.62068 2.61408,2.7205 1.77559,-0.0308 2.90237,-1.21169 2.9667,-2.75548 -0.0797,-1.75761 -1.51984,-2.81671 -3.15588,-2.90133 z m 0.4987,1.46545 c 0.78193,0.0112 1.32937,0.63115 1.31563,1.24924 -0.0137,0.61808 -0.53258,1.71156 -1.30206,1.66389 -0.76949,-0.0477 -1.55109,-0.8127 -1.59528,-1.53219 -0.0442,-0.71949 0.79978,-1.39218 1.58171,-1.38094 z"
             id="path1348-5-2-9"
             inkscape:connector-curvature="0"
             sodipodi:nodetypes="ccccczzzzz" />
          <path
             style="color:#000000;font-style:normal;font-variant:normal;font-weight:normal;font-stretch:normal;font-size:medium;line-height:normal;font-family:sans-serif;font-variant-ligatures:normal;font-variant-position:normal;font-variant-caps:normal;font-variant-numeric:normal;font-variant-alternates:normal;font-feature-settings:normal;text-indent:0;text-align:start;text-decoration:none;text-decoration-line:none;text-decoration-style:solid;text-decoration-color:#000000;letter-spacing:normal;word-spacing:normal;text-transform:none;writing-mode:lr-tb;direction:ltr;text-orientation:mixed;dominant-baseline:auto;baseline-shift:baseline;text-anchor:start;white-space:normal;shape-padding:0;clip-rule:nonzero;display:inline;overflow:visible;visibility:visible;opacity:1;isolation:auto;mix-blend-mode:normal;color-interpolation:sRGB;color-interpolation-filters:linearRGB;solid-color:#000000;solid-opacity:1;vector-effect:none;fill:#535360;fill-opacity:1;fill-rule:nonzero;stroke:none;stroke-width:0.45549423;stroke-linecap:butt;stroke-linejoin:miter;stroke-miterlimit:4;stroke-dasharray:none;stroke-dashoffset:0;stroke-opacity:1;color-rendering:auto;image-rendering:auto;shape-rendering:auto;text-rendering:auto;enable-background:accumulate"
             d="m 158.2084,100.11308 c -1.51662,0.23075 -2.38489,1.38554 -2.4249,2.93631 0.10508,1.72965 0.99906,2.62068 2.61408,2.7205 1.7756,-0.0308 2.90237,-1.21169 2.9667,-2.75548 -0.0797,-1.75761 -1.51984,-2.81671 -3.15588,-2.90133 z m 0.4987,1.46545 c 0.78193,0.0112 1.32938,0.63115 1.31564,1.24924 -0.0137,0.61808 -0.53259,1.71156 -1.30207,1.66389 -0.76949,-0.0477 -1.55109,-0.8127 -1.59528,-1.53219 -0.0442,-0.71949 0.79978,-1.39218 1.58171,-1.38094 z"
             id="path1348-5-2-1"
             inkscape:connector-curvature="0"
             sodipodi:nodetypes="ccccczzzzz" />
          <path
             style="color:#000000;font-style:normal;font-variant:normal;font-weight:normal;font-stretch:normal;font-size:medium;line-height:normal;font-family:sans-serif;font-variant-ligatures:normal;font-variant-position:normal;font-variant-caps:normal;font-variant-numeric:normal;font-variant-alternates:normal;font-feature-settings:normal;text-indent:0;text-align:start;text-decoration:none;text-decoration-line:none;text-decoration-style:solid;text-decoration-color:#000000;letter-spacing:normal;word-spacing:normal;text-transform:none;writing-mode:lr-tb;direction:ltr;text-orientation:mixed;dominant-baseline:auto;baseline-shift:baseline;text-anchor:start;white-space:normal;shape-padding:0;clip-rule:nonzero;display:inline;overflow:visible;visibility:visible;opacity:1;isolation:auto;mix-blend-mode:normal;color-interpolation:sRGB;color-interpolation-filters:linearRGB;solid-color:#000000;solid-opacity:1;vector-effect:none;fill:#535360;fill-opacity:1;fill-rule:nonzero;stroke:none;stroke-width:0.45549423;stroke-linecap:butt;stroke-linejoin:miter;stroke-miterlimit:4;stroke-dasharray:none;stroke-dashoffset:0;stroke-opacity:1;color-rendering:auto;image-rendering:auto;shape-rendering:auto;text-rendering:auto;enable-background:accumulate"
             d="m 170.99995,100.04976 c -1.51662,0.23075 -2.38489,1.38554 -2.4249,2.93631 0.10508,1.72965 0.99906,2.62068 2.61408,2.7205 1.77559,-0.0308 2.90237,-1.21169 2.9667,-2.75548 -0.0797,-1.75761 -1.51984,-2.81671 -3.15588,-2.90133 z m 0.4987,1.46545 c 0.78193,0.0112 1.32937,0.63115 1.31563,1.24924 -0.0137,0.61808 -0.53258,1.71156 -1.30206,1.66389 -0.76949,-0.0477 -1.55109,-0.8127 -1.59528,-1.53219 -0.0442,-0.71949 0.79978,-1.39218 1.58171,-1.38094 z"
             id="path1348-5-2-2"
             inkscape:connector-curvature="0"
             sodipodi:nodetypes="ccccczzzzz" />
          <path
             style="fill:#535360;fill-opacity:1;stroke:none;stroke-width:0.35461712px;stroke-linecap:butt;stroke-linejoin:miter;stroke-opacity:1"
             d="m 132.25355,145.25098 c -10.59821,-0.9168 -10.40899,-3.26576 0.009,-3.79558 0.35211,-11.08439 3.17697,-10.71428 3.78374,-0.13046 11.46952,0.84056 11.61658,3.1558 -0.15696,3.85085 -0.22009,10.22064 -2.81879,11.19576 -3.63615,0.0751 z"
             id="path1463"
             inkscape:connector-curvature="0"
             sodipodi:nodetypes="ccccc" />
          <path
             style="fill:#535360;fill-opacity:1;stroke:none;stroke-width:0.35461712px;stroke-linecap:butt;stroke-linejoin:miter;stroke-opacity:1"
             d="m 189.77451,140.13177 c 1.0336,-10.58745 3.38033,-10.37235 3.79522,0.0512 11.07984,0.47431 10.6786,3.29493 0.0887,3.78495 -0.96695,11.45956 -3.2837,11.58109 -3.84887,-0.1994 -10.2176,-0.33276 -11.16401,-2.94207 -0.035,-3.63675 z"
             id="path1463-7"
             inkscape:connector-curvature="0"
             sodipodi:nodetypes="ccccc" />
          <path
             style="fill:#535360;fill-opacity:1;stroke:none;stroke-width:0.35461712px;stroke-linecap:butt;stroke-linejoin:miter;stroke-opacity:1"
             d="m 195.01414,189.4033 c 10.60862,0.7871 10.44814,3.13818 0.037,3.79539 -0.21652,11.08786 -3.0457,10.75233 -3.78187,0.17676 -11.47895,-0.7002 -11.65431,-3.01348 0.10984,-3.85248 0.0951,-10.22258 2.68166,-11.2294 3.63496,-0.11961 z"
             id="path1463-0"
             inkscape:connector-curvature="0"
             sodipodi:nodetypes="ccccc" />
          <path
             style="fill:#535360;fill-opacity:1;stroke:none;stroke-width:0.35461712px;stroke-linecap:butt;stroke-linejoin:miter;stroke-opacity:1"
             d="m 134.71648,190.89928 c 1.11756,-10.57893 3.4625,-10.34521 3.79471,0.0813 11.07572,0.56218 10.65212,3.37952 0.0587,3.78552 -1.05786,11.45153 -3.37548,11.55467 -3.84719,-0.22995 -10.21464,-0.41381 -11.14031,-3.03054 -0.006,-3.63692 z"
             id="path1463-9"
             inkscape:connector-curvature="0"
             sodipodi:nodetypes="ccccc" />
        </g>
      </g>
    </g>
  </g>
</svg>
