<?xml version="1.0" encoding="UTF-8" standalone="no"?>
<!-- Created with Inkscape (http://www.inkscape.org/) -->

<svg
   xmlns:dc="http://purl.org/dc/elements/1.1/"
   xmlns:cc="http://creativecommons.org/ns#"
   xmlns:rdf="http://www.w3.org/1999/02/22-rdf-syntax-ns#"
   xmlns:svg="http://www.w3.org/2000/svg"
   xmlns="http://www.w3.org/2000/svg"
   xmlns:sodipodi="http://sodipodi.sourceforge.net/DTD/sodipodi-0.dtd"
   xmlns:inkscape="http://www.inkscape.org/namespaces/inkscape"
   version="1.1"
   id="svg904"
   width="332.66666"
   height="340.66666"
   viewBox="0 0 332.66666 340.66666"
   sodipodi:docname="NotesVeve-Center.svg"
   inkscape:version="0.92.2 (5c3e80d, 2017-08-06)">
  <metadata
     id="metadata910">
    <rdf:RDF>
      <cc:Work
         rdf:about="">
        <dc:format>image/svg+xml</dc:format>
        <dc:type
           rdf:resource="http://purl.org/dc/dcmitype/StillImage" />
        <dc:title></dc:title>
      </cc:Work>
    </rdf:RDF>
  </metadata>
  <defs
     id="defs908" />
  <sodipodi:namedview
     pagecolor="#ffffff"
     bordercolor="#666666"
     borderopacity="1"
     objecttolerance="10"
     gridtolerance="10"
     guidetolerance="10"
     inkscape:pageopacity="0"
     inkscape:pageshadow="2"
     inkscape:window-width="2560"
     inkscape:window-height="1340"
     id="namedview906"
     showgrid="false"
     showguides="true"
     inkscape:guide-bbox="true"
     inkscape:lockguides="false"
     inkscape:zoom="1.687867"
     inkscape:cx="0.94857684"
     inkscape:cy="64.786826"
     inkscape:window-x="2560"
     inkscape:window-y="27"
     inkscape:window-maximized="1"
     inkscape:current-layer="svg904" />
  <path
     style="fill:#130000;fill-opacity:0.56499999;fill-rule:nonzero;stroke:none;stroke-width:0.57280856"
     d="m 165.32838,44.125237 c -1.72985,0.01556 -0.31227,9.778106 -1.24518,10.310555 -1.36092,0.717122 -7.58668,-7.59755 -8.66933,-6.335017 -0.85453,1.070877 6.81676,7.688897 6.04806,8.865668 -0.7733,1.432445 -9.43725,-0.663512 -9.87759,0.672938 -0.36961,1.765077 8.92839,0.849343 9.85913,3.205267 0.77236,2.32056 -7.14862,7.598862 -5.18213,8.425992 1.7686,0.731447 6.07839,-6.289287 7.41071,-5.042841 0.30985,1.022079 1.47364,5.190825 -0.11914,8.316912 -0.75188,1.376379 -2.17362,3.361046 -3.15996,4.41018 -1.87531,1.994645 -4.05877,6.215063 -5.72921,11.072434 -2.63219,7.653966 0.78535,19.916025 7.45267,26.070065 2.0163,1.37671 2.21439,1.32386 2.62944,3.27106 0.60446,0.63988 0.15939,14.81082 -0.35723,15.64673 -0.19399,0.31389 -1.4311,-0.52958 -2.75049,-1.8745 -5.07847,-5.01187 -13.03231,-8.30596 -20.12605,-10.75526 -7.84047,-2.57516 -14.39394,-2.08201 -22.35968,0.83907 -6.01318,2.67842 -11.60834,6.66856 -16.18541,10.29822 -0.49073,0.54086 -1.53123,0.54824 -2.06951,0.44027 -0.25193,0.4488 -0.42118,8.91514 -0.22151,18.77682 0.19971,9.86171 1.0444,21.44237 0.007,22.02404 -1.2759,0.71521 -2.400544,-1.94075 -4.245721,-4.72063 -1.74127,-2.62338 -2.145132,-3.2377 -2.621271,-2.55918 -0.576048,0.82088 0.1714,2.86775 1.792265,5.63355 0.80348,1.37102 1.911239,2.92663 1.359302,3.7322 -0.574429,0.6031 -2.361399,0.51848 -3.445243,0.49674 l -2.242009,-0.0453 0.07048,-7.79669 c -0.01415,-5.09118 -0.385503,-6.08025 -0.807191,-8.72638 -0.234901,-4.75423 2.515589,-11.42345 3.945332,-17.47961 0.434755,-1.11527 0.738831,-2.75522 3.599632,-13.494 2.632334,-9.88119 1.366913,-14.10826 -1.481806,-16.39721 -27.097399,-16.964144 -22.350587,34.04475 -6.684073,9.2164 0.540868,-1.26056 -0.710422,-2.82346 -2.154745,-1.07737 -7.917147,14.72384 -12.451527,-8.0294 -0.949833,-9.7165 4.47241,-0.77897 10.51145,3.70166 10.288739,8.29678 -0.08675,1.78986 -1.584018,8.74537 -2.448421,11.42821 -0.152258,0.47257 -0.929957,3.68924 -1.80569,6.52465 -1.755625,5.61769 -4.695056,18.38143 -5.756055,18.74325 -1.061,0.36183 -2.383679,-2.31148 -4.359834,-4.35816 -7.198629,-7.45552 -13.823889,-8.57013 -16.907364,-2.84445 -2.533093,4.70366 2.289814,12.64884 6.966001,11.47519 1.758548,-0.44137 3.417811,-3.39458 3.866459,-5.18214 0.64943,-2.01086 -1.518289,-2.75364 -2.092654,-0.84075 -0.459563,1.53055 -1.287552,3.48021 -2.416536,3.61474 -3.654549,0.43546 -6.141878,-6.73097 -3.07605,-9.14256 0.830099,-0.65295 2.291089,-0.96494 2.935086,-0.96494 5.497945,0.26403 10.642175,6.80336 13.932003,11.09089 3.83e-4,0.21017 0.104533,1.81024 -0.555468,3.33281 -0.660002,1.52259 -2.190973,4.91969 -3.126393,7.43756 -2.497963,6.72377 -2.659981,7.09858 -10.71499,7.09858 -5.26072,0 -9.716531,-0.31825 -9.954787,-0.73839 -0.340829,-0.53735 1.871892,-3.38715 3.485518,-5.69732 0.719909,-1.04455 0.07101,-2.79952 -1.757023,-0.89445 -1.168139,1.21736 -3.631767,4.79575 -4.291031,4.55617 -0.758386,-0.2756 -0.646058,-4.21826 -0.654479,-6.24271 -0.385467,-1.55716 -1.368852,-1.63891 -1.540541,0.0151 -10e-7,2.15747 -0.163231,6.27177 -0.751811,6.38201 -0.525248,0.0984 -3.28821,-2.90916 -4.542753,-4.33802 -1.002109,-0.96237 -2.023715,-0.34208 -1.184774,1.03878 1.020929,1.38218 3.819595,4.98915 3.547609,5.66711 -0.270007,0.5566 -4.892815,0.81524 -6.783083,1.17471 -2.754165,0.38612 -2.601755,1.49965 -0.298711,1.60766 2.581861,0.12109 6.75188,0.15371 6.974392,0.62427 0.182916,0.38682 -2.950304,4.77105 -3.743953,5.84165 -0.850671,1.64979 0.145695,2.11062 1.320705,0.9599 1.377072,-1.42078 4.24441,-4.73947 4.760912,-4.56793 0.481538,0.15993 0.686595,5.52639 0.664548,7.12879 -0.02694,1.95788 1.541572,1.33681 1.572426,0.23997 0,0 0.41253,-7.50788 0.941442,-7.61712 0.528912,-0.10924 4.579672,4.31117 4.579672,4.31117 1.764134,1.17205 2.000915,-0.21074 1.312314,-1.09919 -1.046766,-1.70121 -3.723003,-4.66043 -3.40161,-5.19052 0.287846,-0.47476 2.129804,-1.14674 7.848708,-0.77698 2.137484,0.10001 4.428334,0.36226 7.521469,0.55211 2.665871,0.15091 2.555491,2.37706 5.286174,9.08382 3.746291,9.28429 3.226399,8.80047 -0.461491,12.26057 -2.349176,2.17974 -4.577287,4.04087 -8.144064,5.09822 -12.256095,1.89593 -3.409907,-16.6955 0.877672,-5.14856 0.739209,1.2425 1.745138,0.30055 1.565715,-0.48835 -0.520877,-1.98877 -1.171391,-3.40391 -1.689897,-3.96211 -4.599926,-5.04154 -11.321926,2.38891 -8.880771,8.3253 0.872636,2.17345 3.370734,3.77209 6.393752,3.79263 3.519549,0.024 7.003641,-1.65063 10.985171,-5.27946 1.641922,-1.49652 3.122397,-2.72035 3.289187,-2.72035 0.166795,0 0.733318,1.35326 1.258613,3.00725 1.082304,3.40787 3.513228,10.17422 4.579672,12.74554 5.475156,13.2013 6.185569,15.46556 5.873526,18.71306 -0.493383,5.13473 -4.61119,8.98913 -8.867346,8.29845 -15.488995,-3.08954 -5.335091,-26.4902 -0.330596,-12.82106 0.486122,1.68595 2.03345,1.20387 1.919805,-0.27354 -0.210944,-3.53622 -3.104145,-6.70637 -5.823182,-6.73945 -3.202641,-0.0389 -5.988303,3.68817 -6.590096,8.81867 -0.465122,3.96534 0.489432,6.99502 3.195198,10.13771 2.38022,2.76458 5.162147,3.93862 9.330515,3.93862 9.545162,-0.35305 11.888702,-13.38547 9.508402,-21.45348 23.61803,-5.08633 43.70263,-6.00088 63.3485,0.11244 0.37444,4.27828 1.25444,7.65735 -1.37105,11.66986 -4.91468,5.2604 -10.25219,13.04348 -9.401,24.84837 0.75503,6.73 3.55929,10.81732 7.91919,16.18073 3.31914,3.52203 4.22596,6.34729 4.06783,8.58038 0,0 0.22601,2.40618 -0.80718,2.83439 -1.0332,0.42821 -2.733,-2.70227 -5.21905,-4.44038 -1.00438,-0.40495 -1.66393,0.19853 -0.98172,1.31735 1.19412,2.02489 4.36166,4.72722 4.20713,5.87184 -0.15453,1.14463 -5.59552,0.16255 -7.25801,0.76021 -1.66248,0.59766 -0.85631,1.36161 -0.0755,1.45159 2.28163,0.26297 7.0084,-0.32335 7.45602,1.00857 0.44761,1.33193 -2.63283,2.04501 -4.85824,5.2845 -0.26516,1.00579 0.34298,1.50788 1.29385,1.10254 3.57025,-1.52195 4.45044,-4.76781 5.6604,-4.10139 1.20996,0.6664 0.30566,5.25762 0.88942,7.69767 0.19716,0.51415 1.0028,0.73595 1.56068,-0.005 0.3988,-2.68174 -0.56323,-6.97832 0.91627,-7.42916 1.4795,-0.45085 4.05418,2.97833 4.94048,3.73891 0.88629,0.76059 1.95377,-0.0596 1.26197,-1.0673 -0.81079,-1.18096 -4.5527,-4.23178 -4.11987,-5.4607 0.43282,-1.22893 5.45514,-0.40529 6.09673,-0.52526 0.6416,-0.11999 1.05269,-1.01042 -0.0218,-1.28882 -1.60508,-0.34423 -5.85621,-0.46651 -6.26286,-1.23009 -0.40665,-0.76358 3.59009,-3.92372 4.44542,-5.64697 0.0478,-0.0963 0.098,-0.17032 0.1074,-0.26515 0.0196,-0.19764 0.0303,-0.44761 -0.11244,-0.58568 -0.12837,-0.12407 -0.35046,-0.0946 -0.52861,-0.0822 -0.17488,0.0122 -0.33214,0.0749 -0.50345,0.15271 -0.59422,0.26966 -4.87059,4.02716 -5.67885,3.76912 -0.80823,-0.25804 -0.61608,-0.78777 -0.79377,-2.7723 -0.17819,-2.19839 0.16347,-3.864 2.87803,-6.58003 9.06665,-9.153 9.19948,-26.6336 1.6815,-37.4647 -2.27057,-3.35325 -2.78516,-4.85301 -3.5325,-6.1907 -1.05932,-2.28979 -0.38592,-8.03828 -0.16025,-11.2864 17.44698,-6.50632 46.13979,-4.48793 62.5136,-0.0931 0.63598,-17.26666 0.46508,-26.05949 0.41446,-45.90747 2.72043,0 8.39438,-0.37382 9.20466,0.21815 0.81029,0.59198 0.10474,8.39498 0.11076,28.58394 0.004,14.82285 0.0468,28.24179 0.41618,28.87593 0.72717,1.24843 1.52995,1.07011 2.26382,-0.0638 0.25488,-0.39381 0.60907,-13.34712 0.46317,-28.78363 l -0.27018,-28.56379 c 11.35686,-0.0187 27.18168,-0.89605 28.2332,-0.25844 1.62583,1.28524 -3.01285,3.92958 -3.59795,5.23583 -0.41435,1.26743 0.47835,1.63022 1.23176,0.92466 1.3693,-1.28234 3.49867,-3.9564 5.22072,-3.73221 2.0274,0.33146 1.1892,6.32657 1.58921,7.26137 0.40002,0.93474 0.99751,0.46317 1.1445,-0.52695 0.14698,-0.99011 -0.36846,-6.91115 1.09583,-7.22611 1.46428,-0.31496 3.05589,3.81735 4.71393,5.05962 0.55145,0.35201 1.51512,0.01 0.99514,-1.16799 -1.82249,-2.84482 -3.47241,-5.16826 -3.09786,-6.04637 0.37455,-0.8781 2.99882,-0.0689 5.76612,-0.41954 0.50006,-0.23833 0.84446,-1.25216 -0.0638,-1.40965 -1.35266,-0.23454 -4.81607,-0.0358 -5.5983,-1.09583 -0.93,-1.26025 2.57258,-4.18122 3.6097,-5.70739 0.1274,-0.87786 -0.24197,-1.34959 -0.99514,-1.03374 -1.13721,0.47691 -3.24686,5.07138 -5.45567,4.60652 -1.56579,-0.32953 -0.55094,-5.79244 -0.99514,-7.34526 -0.29379,-1.02703 -1.17972,-0.52279 -1.37609,0.31381 -0.0105,2.87673 -0.26905,6.51183 -1.27371,6.86028 -0.94045,0.32619 -3.0082,-3.29825 -4.13161,-4.34641 -1.25532,-1.17125 -1.90005,-0.55403 -1.37608,0.67965 0.42598,1.04142 4.07161,4.23136 3.28414,6.24272 -0.52892,1.31557 -8.46244,0.94555 -28.92292,0.47156 l 0.0923,-19.4699 c -0.0981,-10.23896 -0.006,-22.3072 0.20474,-26.81684 l 0.38262,-8.19944 2.80251,-3.20191 c 2.99422,-3.42165 3.53044,-5.45841 1.69493,-6.44074 -1.53985,-0.8241 -1.62535,-0.79133 -2.54743,0.99179 -2.08341,4.02886 -6.95063,6.97503 -11.5591,6.99788 -2.21296,0.011 -3.86491,1.17357 -3.39825,2.38969 0.43285,1.12796 3.15325,1.61641 6.74448,1.21163 l 2.7035,-0.30543 v 26.09356 c 0,0 1.67365,25.77907 0.17956,26.67755 -1.49408,0.89848 -6.39489,1.1082 -9.35736,0.23159 l 0.0755,-22.11635 -0.0319,-21.73036 -0.89108,-0.31875 c -8.08369,-2.2006 -11.75591,-11.4274 -30.88133,-12.11624 -7.07909,0.0857 -16.35569,3.09247 -24.36338,8.57031 -3.75097,2.5736 -5.36456,4.01142 -7.86716,5.54461 -0.33064,-0.33064 -0.0576,-9.8589 0.52169,-15.55759 0.6233,-2.38278 0.63375,-2.106 2.30095,-3.38705 1.90393,-1.11862 5.35363,-7.32395 6.42061,-10.35754 2.80927,-7.987212 -0.0265,-20.388505 -6.28971,-27.511597 -1.10011,-1.251164 -2.28478,-2.853863 -2.44003,-3.562714 -0.34258,-1.948776 -1.63454,-4.799509 0.96661,-9.785294 0.43281,-0.670684 5.95581,6.358059 7.45603,5.229116 1.75905,-1.326822 -6.45744,-7.084848 -5.34827,-8.64583 0.81385,-1.1196 8.87528,-5.37e-4 8.94454,-1.637874 -0.002,-2.135734 -9.13066,-0.126484 -9.43624,-1.297211 -0.43692,-0.952852 6.64723,-8.073506 5.04284,-9.28017 -1.45274,-0.944874 -6.60835,7.011872 -7.45602,6.625337 -1.04178,-0.514221 0.0331,-10.05121 -1.94666,-10.073936 z m 0.22152,13.002308 c 0.78761,0 1.66489,0.670492 1.65466,1.463347 -0.0126,0.982923 -0.83516,1.590886 -1.62278,1.590886 -0.78761,0 -1.56067,-0.894121 -1.56067,-1.622771 0,-0.696835 0.74117,-1.431462 1.52879,-1.431462 z m -1.71843,19.417876 c 0.28032,0.03845 0.2853,0.798996 0.2853,2.800834 0,1.781578 -0.11375,3.238829 -0.25341,3.238829 -0.52368,0 -2.03727,-2.582068 -2.03727,-3.475449 0,-0.511163 0.51607,-1.396566 1.14617,-1.966792 0.42481,-0.384433 0.69103,-0.620494 0.85921,-0.597422 z m 3.64998,0.884386 c 0.34274,0 0.78137,0.626395 0.97333,1.391187 0.19194,0.764791 0.0754,1.859168 -0.25844,2.433317 -0.53768,0.924576 -0.60889,0.870355 -0.62427,-0.483307 -0.01,-0.840608 -0.1746,-1.936663 -0.36583,-2.434996 -0.19123,-0.498337 -0.0675,-0.906201 0.27521,-0.906201 z m -7.55838,3.769125 2.08257,2.841108 c 1.61182,2.197942 2.0867,3.392498 2.0977,5.276105 0.008,1.338939 -0.0504,2.42441 -0.12922,2.41318 -0.20593,-0.0293 -4.00656,-4.531792 -4.94384,-5.856744 -0.67569,-0.955101 -0.66855,-1.376821 0.0504,-2.89481 z m 11.02879,1.478451 c 0.25828,-5.13e-4 0.46336,0.269795 0.85754,0.808868 0.88051,1.20417 0.89888,1.159911 -1.96344,4.974038 -2.29449,3.057474 -2.8646,3.31044 -2.8646,1.267003 0,-1.990659 1.30949,-4.914749 2.79412,-6.237685 0.6073,-0.54106 0.9181,-0.811711 1.17638,-0.812224 z m -13.69874,5.984284 c 0.0564,-0.01273 0.112,-0.0065 0.16782,0.01846 0.37503,0.167747 2.0346,1.861988 3.68858,3.765768 2.34828,2.702941 3.00725,3.886024 3.00725,5.393575 0,1.061822 -0.19333,1.929312 -0.42961,1.928195 -0.23628,-10e-4 -1.97619,-1.030886 -3.86646,-2.288997 -1.89027,-1.258111 -3.65945,-2.36325 -3.93191,-2.455134 -0.27248,-0.09189 -0.19213,-1.625971 0.17789,-3.408322 0.38549,-1.85696 0.7918,-2.86441 1.18644,-2.953545 z m 16.00453,0.580639 c 0.0312,0.0061 0.057,0.02015 0.0789,0.04196 0.27887,0.278866 0.66005,1.655972 0.8458,3.060946 0.33624,2.543298 0.32268,2.568912 -3.08948,5.547964 -3.55883,3.107104 -4.11148,3.094004 -4.11148,-0.09062 0,-1.582027 5.31002,-8.748299 6.27629,-8.560245 z m -17.15909,8.139029 3.00724,2.195021 c 4.59886,3.357404 5.01097,3.784544 5.01097,5.188834 0,1.34746 -0.80354,1.74952 -1.43987,0.71993 -0.19902,-0.32203 -1.76057,-1.61993 -3.47041,-2.88306 -2.35201,-1.73753 -3.10793,-2.652403 -3.10793,-3.759056 z m 18.30862,1.132751 c 0.0815,-0.0091 0.14351,0.0042 0.18292,0.04363 0.89624,0.896245 -0.69923,3.378894 -3.48719,5.425464 -3.23372,2.37377 -3.54929,2.47109 -3.54929,1.09583 0,-1.13919 5.63014,-6.427844 6.85356,-6.564927 z m -16.52643,6.739454 c 0.29506,0.0811 1.56996,0.9286 3.08612,2.06244 2.2606,1.69059 3.1499,2.73698 3.1499,3.70536 0,1.69342 -0.62743,1.71143 -2.07924,0.0604 -1.55712,-1.77074 -4.22055,-5.44057 -4.22055,-5.81479 0,-0.0211 0.0216,-0.025 0.0638,-0.0134 z m 14.40357,1.39454 c 0.39627,-0.004 -0.35932,1.62604 -1.44489,3.11632 -0.24117,0.33108 -1.08002,1.32416 -1.86274,2.20677 l -1.42307,1.60431 v -1.42474 c 0,-1.31457 3.5893,-5.4896 4.7307,-5.50266 z m 26.49296,15.93404 c 4.01898,0.29806 12.13855,1.87286 15.93236,3.50901 3.25386,1.45618 11.0976,8.05176 11.0976,8.05176 l -0.0101,40.5374 c -0.16033,21.89521 -0.26588,41.8574 -0.3457,42.97911 -3.07286,-2.43848 -6.92447,-6.9228 -14.50968,-10.24413 -8.47604,-4.14856 -19.15963,-3.94271 -27.77925,0 -7.53789,3.30639 -12.38986,7.6299 -15.60893,11.64874 V 178.6038 138.1436 c 3.86021,-3.9841 9.23879,-8.1512 14.80464,-11.38289 5.58642,-2.78542 10.24409,-4.11115 16.41902,-4.17859 z m -68.04229,0.0704 c 4.60895,-0.092 9.56018,0.59759 14.00417,2.22187 6.69433,2.41595 13.23745,7.61583 19.59744,12.4502 l 0.24837,34.40208 c 0.0513,14.946 -0.0211,31.30265 -0.34235,47.82896 -6.6219,-6.96114 -15.8548,-14.14498 -29.59418,-15.2376 -10.71595,-0.34296 -22.18451,6.58942 -29.78884,13.64504 0.90321,-28.01583 -0.89635,-56.94654 0.50344,-83.61048 5.27157,-4.91915 13.09494,-9.63337 20.90808,-11.35269 1.42876,-0.19875 2.92756,-0.3167 4.46387,-0.34738 z M 259.6656,145.7842 c -0.33416,-0.0325 -0.64286,0.21585 -0.74678,0.89613 -0.20782,1.36056 0.0637,5.62615 -0.62259,6.01281 -0.68626,0.38665 -4.75726,-3.4756 -5.50769,-3.89163 -0.75041,-0.41603 -1.67817,0.32344 -1.02702,1.06898 0.65113,0.74555 4.03903,4.19044 3.88155,4.76763 -0.15748,0.57718 -3.89997,0.92991 -5.62012,1.19987 -1.36135,0.28817 -1.27719,1.18883 -0.16782,1.30057 0,0 5.55157,0.0442 6.00947,1.05724 0.45789,1.01306 -3.63696,4.30256 -3.89331,4.86328 -0.25636,0.56073 0.16451,1.66927 0.97667,1.20491 1.15273,-0.95018 4.52724,-3.4176 5.0999,-3.10123 0.59517,0.31637 1.15398,5.09337 1.36602,6.48102 0.21862,0.78796 1.07104,1.21254 1.37273,0.0906 0.0624,-1.64771 0.0717,-6.62035 0.8441,-6.97271 0.77237,-0.35236 3.73646,3.04249 4.75924,3.44189 1.02278,0.3994 1.23981,-0.46426 1.00185,-1.08409 -2.19407,-2.3803 -4.13389,-3.82097 -3.64829,-4.99082 0.44246,-1.10237 5.05831,-1.15381 6.27628,-1.51872 0.86976,-0.52695 0.45933,-1.43029 -0.25004,-1.47678 -1.13256,-0.0742 -5.3419,0.8867 -6.15546,-0.3222 -0.86247,-1.2816 2.80282,-4.2489 2.8646,-5.83157 0.0469,-1.20142 -0.64225,-1.23721 -1.26868,-0.71825 -0.62642,0.51895 -2.75176,4.30345 -3.75402,3.99903 -1.00226,-0.30442 -0.48356,-4.78335 -0.89277,-5.68054 -0.20462,-0.44859 -0.56366,-0.76296 -0.89782,-0.79544 z m 0.22991,9.28184 c 1.10244,-0.0225 1.33847,0.77012 1.36098,1.60264 0.0225,0.83253 -0.53958,1.43585 -1.4281,1.48852 -0.88854,0.0527 -1.40589,-0.61205 -1.47343,-1.39958 -0.0675,-0.78752 0.4381,-1.66907 1.54055,-1.69158 z m -172.054035,8.13735 c 0.340213,2.61579 0.427444,6.27389 0.60749,9.98333 -0.314591,1.49634 -0.557941,1.89837 -2.663224,2.05069 -1.338941,0.0969 -2.705179,-0.15534 -2.705179,-0.44974 0,-0.79553 4.183768,-10.95298 4.760913,-11.58428 z M 276.15175,174.979 c 1.98875,-0.0385 1.71079,2.57647 0.0436,2.6263 -1.70152,0.0509 -1.91489,-2.60903 -0.0436,-2.6263 z m -218.560611,0.69476 c 0.88407,-0.0159 1.466703,0.38002 1.466703,1.46503 0,1.08499 -0.633695,1.28056 -1.466703,1.31063 -0.83301,0.0301 -1.393896,-0.35089 -1.392865,-1.31063 0.001,-0.95976 0.508793,-1.44914 1.392865,-1.46503 z m 28.119085,1.93323 c 3.121432,0.34527 3.355584,0.35218 3.185129,5.91044 -0.09019,2.9411 0.298551,4.28741 1.038775,4.33802 0.653131,0.0168 0.996744,-1.6897 1.028707,-5.7678 0.02427,-3.09453 0.424361,-4.24157 1.725138,-4.28264 4.026088,-0.12727 5.267929,0.003 2.817614,4.37997 -1.440047,3.25619 -2.681397,6.9603 -1.441531,7.36708 0.379068,0.12436 1.071232,-1.32225 1.872815,-3.17003 1.658077,-3.82212 3.509122,-7.63915 4.552819,-7.04487 1.19884,0.68262 0.0438,12.1814 -0.0168,22.10459 -0.0605,9.9232 -0.059,22.09141 -0.515189,21.01212 -4.367575,-7.58166 -6.41144,-15.22547 -9.968213,-23.20211 l -0.926339,-2.7639 2.01378,-2.35109 c 1.106947,-1.29322 2.012102,-2.69208 2.012102,-3.10794 0,-1.274 -1.557924,-0.70578 -2.919982,0.87935 -2.67131,3.26534 -2.4984,3.32225 -3.898343,-1.99196 -0.442025,-1.53604 -1.325493,-4.29571 -1.861068,-6.16217 -1.466465,-5.11058 -1.646903,-6.32532 1.300566,-6.14706 z m 174.645096,7.53657 c -0.24086,-0.0136 -0.46889,0.15321 -0.6293,0.54875 -0.25249,2.95403 0.32042,6.4615 -0.93641,6.89048 -1.25683,0.42898 -2.50122,-2.19899 -5.24925,-3.77247 -0.67476,-0.108 -1.19336,0.80537 -1.00857,1.25022 1.89457,2.69456 4.41126,3.95808 4.1467,4.85321 -0.26455,0.89513 -4.61467,0.21707 -5.64865,0.54036 -1.034,0.32329 -1.16405,0.96391 -0.38094,1.33917 2.30219,0.64231 5.84228,0.0555 6.22258,1.23679 0.3803,1.18129 -2.65576,3.19655 -4.40514,5.40197 -0.27734,0.72881 -0.0164,1.16128 0.83068,1.16128 2.50376,-1.04351 5.17315,-4.59292 6.11518,-4.17859 0.94229,0.41433 0.32542,4.37046 0.94647,6.20915 0.60624,1.59451 1.40897,1.43469 1.88289,0.13593 0.55154,-1.99201 -0.8658,-5.46348 0.32053,-6.21419 1.18633,-0.75072 3.5483,2.65803 5.00592,3.64662 0.84783,0.50162 1.88319,-0.28913 1.21834,-1.72346 -0.84382,-1.42852 -4.20468,-3.86137 -3.80605,-4.76762 0.39864,-0.90624 2.45935,-0.19374 5.98261,-0.60246 0.61135,-0.22017 0.55163,-0.95345 -0.099,-1.33077 -2.92604,-0.55029 -6.09798,-0.0127 -6.5213,-1.08912 -0.42331,-1.07643 3.02632,-2.40941 4.45214,-4.92705 0.23451,-0.75608 -0.41265,-1.49265 -1.2368,-1.31567 -2.20432,1.39965 -3.74941,4.19147 -4.93376,3.8933 -1.18435,-0.29815 -0.64279,-3.96787 -1.56571,-6.6505 -0.20905,-0.32733 -0.46229,-0.52176 -0.70315,-0.53533 z m 0.21816,10.28538 c 1.0668,-0.045 1.80975,0.94096 1.07234,1.94833 -0.63012,0.8608 -1.86946,0.27454 -1.86946,-0.80383 0,-0.63008 0.35826,-1.1445 0.79712,-1.1445 z m -127.04939,12.04744 c 0.48033,-0.0145 0.9307,-0.006 1.34755,0.0285 7.14449,0.33001 17.01569,3.69358 24.95002,12.06399 -16.3715,-4.4373 -35.27106,-3.90687 -52.43313,0 3.61332,-6.40755 18.93045,-11.87515 26.13556,-12.09254 z m 63.58696,-0.0611 c 6.4478,0 18.41815,1.9507 25.34661,12.24953 -18.26103,-4.6141 -34.876,-4.10006 -52.77112,0.25171 7.34748,-7.52153 17.81344,-12.28405 27.42451,-12.50124 z m -32.99428,30.14532 v 2.02552 c 0,1.47219 -0.42898,2.42553 -1.57412,3.49055 -0.86637,0.80577 -2.34907,1.9486 -3.2942,2.54072 l -1.71843,1.07735 1.07738,-1.71842 c 0.59212,-0.94514 1.64753,-2.36229 2.34605,-3.1499 0.6985,-0.78761 1.69595,-2.07054 2.21683,-2.84949 z m 2.63972,1.65801 c 0.4181,0.0923 1.26374,1.18571 2.80251,3.50397 1.16474,1.75477 2.00192,3.30776 1.85939,3.45028 -0.52175,0.52175 -5.00928,-4.93097 -5.00928,-6.08665 0,-0.61831 0.0965,-0.92296 0.34738,-0.8676 z m -3.20527,6.61692 c 0.96993,0 0.62058,2.01566 -0.57057,3.2942 -0.62499,0.67086 -2.23546,1.96453 -3.57949,2.87468 -3.72262,2.52091 -3.80173,2.55192 -3.47713,1.31064 0.44836,-1.71452 6.32699,-7.47952 7.62719,-7.47952 z m 3.30932,0 c 0.24826,0 2.05205,1.49484 4.0091,3.32274 2.27518,2.12505 3.55768,3.778 3.55768,4.58302 0,0.69247 -0.0638,1.24878 -0.14265,1.23512 -0.0788,-0.0137 -1.8747,-1.23917 -3.99064,-2.72196 -3.38888,-2.37484 -3.84944,-2.91798 -3.86645,-4.55785 -0.0106,-1.0239 0.18469,-1.86107 0.43296,-1.86107 z m -3.2875,6.8737 c 0.46497,0 0.5709,0.58068 0.32892,1.79059 -0.1969,0.98451 -0.35745,2.16301 -0.35745,2.61959 0,0.45658 -1.45648,2.35703 -3.23715,4.22391 -1.7807,1.86688 -3.40651,3.39489 -3.61138,3.39489 -0.5168,0 -1.61508,-5.59547 -1.21162,-6.17223 0.67718,-0.96808 7.42886,-5.85675 8.08868,-5.85675 z m 3.38315,0.57226 c 0.78516,0 7.08969,4.49163 7.61041,5.42209 0.24042,0.42961 0.22671,1.77049 -0.0302,2.97872 -0.25691,1.20824 -0.5807,1.89782 -0.71825,1.53215 -0.13753,-0.36568 -1.86051,-1.84735 -3.82953,-3.29253 -3.20983,-2.35586 -3.5795,-2.83481 -3.5795,-4.63337 0,-1.10331 0.24603,-2.00706 0.54708,-2.00706 z m -0.22319,8.01987 c 0.17856,0 1.73798,1.22057 3.46538,2.71189 2.66934,2.30455 3.08876,2.92671 2.78908,4.15175 -0.73589,3.00819 -1.6429,3.164 -4.21215,0.71992 -2.11149,-2.00861 -2.3662,-2.53737 -2.3662,-4.91697 0,-1.46648 0.14535,-2.66659 0.32389,-2.66659 z m -3.0492,0.57226 c 0.23846,0 0.43051,1.22548 0.42793,2.72195 -0.004,2.32924 -0.29772,3.02944 -2.04063,4.86831 -1.11976,1.18142 -2.23567,2.14804 -2.48031,2.14804 -0.24463,0 -0.75291,-0.67564 -1.1294,-1.50195 -0.55818,-1.22507 -0.52202,-1.75145 0.19635,-2.84782 1.23166,-1.87976 4.50444,-5.38853 5.02606,-5.38853 z m 3.9319,9.83899 c 0.35576,-0.005 0.88169,0.47545 1.62446,1.41971 1.12149,1.42574 1.13548,1.58625 0.23829,2.57764 -1.65434,1.82803 -2.49709,1.31472 -2.49709,-1.5204 0,-1.66109 0.17694,-2.47047 0.63434,-2.47695 z m -4.3464,0.47156 c 0.60781,0 0.84747,0.65066 0.84747,2.29235 0,2.40919 -0.53399,2.85727 -1.71172,1.43817 -0.89316,-1.07618 -0.27813,-3.73052 0.86425,-3.73052 z m 2.33122,18.37685 c 0.9053,8.6e-4 1.54015,0.50355 1.54027,1.48493 1.2e-4,0.98139 -0.69929,1.39944 -1.55832,1.39944 -0.85903,0 -1.52473,-0.41907 -1.52672,-1.4481 -0.002,-1.02905 0.63949,-1.43744 1.54477,-1.43627 z"
     id="path914"
     inkscape:connector-curvature="0"
     sodipodi:nodetypes="ccccccccccccccccccccccccccccccsccccsccscsscscccccssccccccccccccccccccsccccccccccccccsccsccccsscccccccscccscsccccccsccccscccccccccccccccccccccccccccccccccccscccccccccccccccccccccccccccsccccccccccscssscsssccsccccscccccccscsscscccscsccccccsscccscssccccscccccscccccscccccccsccccccccccccccccsccccccscccccsccccccsssccccccscccsccccccccccscccccsssccccsccscccccccccccccccccccccscccccccscccccccccccccccscccccssscccsccsscccsscsccssscscscssccssccccscczccssczzcszzczzccsccc" />
  <path
     style="fill:#c8e4ef;fill-opacity:1;stroke:none;stroke-width:1.02986133px;stroke-linecap:butt;stroke-linejoin:miter;stroke-opacity:1"
     d="m 114.88961,146.27818 c 19.9594,-8.29197 20.96345,-8.41456 40.04494,0 v 3.36147 c -19.33642,-9.49696 -19.47517,-9.34366 -40.04494,0 z"
     id="path4632"
     inkscape:connector-curvature="0"
     sodipodi:nodetypes="ccccc" />
  <path
     style="fill:#cceeed;fill-opacity:1;stroke:none;stroke-width:1.02986133px;stroke-linecap:butt;stroke-linejoin:miter;stroke-opacity:1"
     d="m 114.84462,163.63189 c 19.95939,-8.29196 20.96344,-8.41455 40.04494,0 v 3.36148 c -19.33643,-9.49696 -19.47517,-9.34366 -40.04494,0 z"
     id="path4632-6"
     inkscape:connector-curvature="0"
     sodipodi:nodetypes="ccccc" />
  <path
     style="fill:#c8e4ef;fill-opacity:1;stroke:none;stroke-width:1.02986133px;stroke-linecap:butt;stroke-linejoin:miter;stroke-opacity:1"
     d="m 115.20457,179.27537 c 19.9594,-8.29191 20.96345,-8.41483 40.04495,0 v 3.3613 c -19.33643,-9.49689 -19.47517,-9.34376 -40.04495,0 z"
     id="path4632-6-7"
     inkscape:connector-curvature="0"
     sodipodi:nodetypes="ccccc" />
  <path
     style="fill:#cceeed;fill-opacity:1;stroke:none;stroke-width:1.02986133px;stroke-linecap:butt;stroke-linejoin:miter;stroke-opacity:1"
     d="m 114.12471,193.75499 c 19.9594,-8.29181 20.96345,-8.41449 40.04495,0 v 3.36145 c -19.33643,-9.49676 -19.47517,-9.34376 -40.04495,0 z"
     id="path4632-6-5"
     inkscape:connector-curvature="0"
     sodipodi:nodetypes="ccccc" />
  <path
     style="fill:#c8e4ef;fill-opacity:1;stroke:none;stroke-width:1.02986133px;stroke-linecap:butt;stroke-linejoin:miter;stroke-opacity:1"
     d="m 177.92665,149.28135 c 19.95939,-8.29177 20.96344,-8.41469 40.04494,0 v 3.36148 c -19.33643,-9.49687 -19.47517,-9.3438 -40.04494,0 z"
     id="path4632-6-3"
     inkscape:connector-curvature="0"
     sodipodi:nodetypes="ccccc" />
  <path
     style="fill:#cceeed;fill-opacity:1;stroke:none;stroke-width:1.02986133px;stroke-linecap:butt;stroke-linejoin:miter;stroke-opacity:1"
     d="m 178.10662,163.89047 c 19.9594,-8.29191 20.96345,-8.41455 40.04495,0 v 3.36128 c -19.33643,-9.4967 -19.47517,-9.34357 -40.04495,0 z"
     id="path4632-6-56"
     inkscape:connector-curvature="0"
     sodipodi:nodetypes="ccccc" />
  <path
     style="fill:#c8e4ef;fill-opacity:1;stroke:none;stroke-width:1.02986133px;stroke-linecap:butt;stroke-linejoin:miter;stroke-opacity:1"
     d="m 178.2866,178.62882 c 19.9594,-8.29192 20.96345,-8.41455 40.04495,0 v 3.36129 c -19.33643,-9.49672 -19.47517,-9.34357 -40.04495,0 z"
     id="path4632-6-2"
     inkscape:connector-curvature="0"
     sodipodi:nodetypes="ccccc" />
  <path
     style="fill:#cceeed;fill-opacity:1;stroke:none;stroke-width:1.02986133px;stroke-linecap:butt;stroke-linejoin:miter;stroke-opacity:1"
     d="m 178.55656,193.62578 c 19.9594,-8.29193 20.96345,-8.41479 40.04494,0 v 3.36129 c -19.33642,-9.49695 -19.47517,-9.34381 -40.04494,0 z"
     id="path4632-6-9"
     inkscape:connector-curvature="0"
     sodipodi:nodetypes="ccccc" />
</svg>
