<?xml version="1.0" encoding="UTF-8" standalone="no"?>
<!-- Created with Inkscape (http://www.inkscape.org/) -->

<svg
   xmlns:dc="http://purl.org/dc/elements/1.1/"
   xmlns:cc="http://creativecommons.org/ns#"
   xmlns:rdf="http://www.w3.org/1999/02/22-rdf-syntax-ns#"
   xmlns:svg="http://www.w3.org/2000/svg"
   xmlns="http://www.w3.org/2000/svg"
   xmlns:sodipodi="http://sodipodi.sourceforge.net/DTD/sodipodi-0.dtd"
   xmlns:inkscape="http://www.inkscape.org/namespaces/inkscape"
   version="1.1"
   id="svg904"
   width="332.66666"
   height="340.66666"
   viewBox="0 0 332.66666 340.66666"
   sodipodi:docname="Veve.svg"
   inkscape:version="0.92.2 (5c3e80d, 2017-08-06)">
  <metadata
     id="metadata910">
    <rdf:RDF>
      <cc:Work
         rdf:about="">
        <dc:format>image/svg+xml</dc:format>
        <dc:type
           rdf:resource="http://purl.org/dc/dcmitype/StillImage" />
        <dc:title></dc:title>
      </cc:Work>
    </rdf:RDF>
  </metadata>
  <defs
     id="defs908" />
  <sodipodi:namedview
     pagecolor="#ffffff"
     bordercolor="#666666"
     borderopacity="1"
     objecttolerance="10"
     gridtolerance="10"
     guidetolerance="10"
     inkscape:pageopacity="0"
     inkscape:pageshadow="2"
     inkscape:window-width="2560"
     inkscape:window-height="1340"
     id="namedview906"
     showgrid="false"
     showguides="true"
     inkscape:guide-bbox="true"
     inkscape:lockguides="false"
     inkscape:zoom="1.687867"
     inkscape:cx="99.59379"
     inkscape:cy="64.786826"
     inkscape:window-x="2560"
     inkscape:window-y="27"
     inkscape:window-maximized="1"
     inkscape:current-layer="svg904" />
  <path
     style="fill:#130000;fill-opacity:0.56499999;fill-rule:nonzero;stroke:none;stroke-width:0.66666663"
     d="m 165.2611,22.796542 c -2.0133,0.01811 -0.36344,11.380306 -1.44922,12 -1.58391,0.834627 -8.8298,-8.842453 -10.08984,-7.373047 -0.99455,1.246347 7.93372,8.948768 7.03906,10.31836 -0.9,1.66716 -10.9836,-0.772232 -11.49609,0.783203 -0.43017,2.054295 10.39136,0.988513 11.47461,3.730469 0.89891,2.700797 -8.31996,8.84398 -6.03125,9.80664 2.05839,0.851299 7.07437,-7.319824 8.625,-5.86914 0.36062,1.189552 1.7151,6.041372 -0.13867,9.679687 -0.87508,1.601906 -2.52978,3.911773 -3.67774,5.132813 -2.18258,2.32148 -4.72382,7.233438 -6.66797,12.886718 -3.06349,8.908113 0.91403,23.179386 8.67383,30.341795 2.34669,1.6023 2.57724,1.54078 3.06029,3.80705 0.70351,0.74472 0.18551,17.23766 -0.41576,18.21053 -0.22578,0.36533 -1.6656,-0.61635 -3.20117,-2.18164 -5.91061,-5.8331 -15.16774,-9.66695 -23.42383,-12.51758 -9.12517,-2.99711 -16.75247,-2.42316 -26.02344,0.97656 -6.99847,3.1173 -13.510433,7.76124 -18.837486,11.98564 -0.571138,0.62949 -1.782124,0.63808 -2.408605,0.51241 -0.293219,0.52234 -0.490193,10.37594 -0.257813,21.85352 0.232442,11.4776 1.215537,24.95583 0.0078,25.63281 -1.484963,0.83239 -2.793887,-2.25876 -4.941407,-5.49414 -2.026587,-3.05323 -2.496624,-3.76821 -3.050781,-2.97852 -0.670437,0.95539 0.199485,3.33765 2.085938,6.55664 0.935134,1.59568 2.224406,3.40618 1.582031,4.34375 -0.668552,0.70192 -2.748328,0.60343 -4.009766,0.57813 l -2.609375,-0.0527 0.08203,-9.07422 c -0.01647,-5.9254 -0.448669,-7.07654 -0.939453,-10.15625 -0.273391,-5.53324 2.927783,-13.29525 4.591797,-20.34375 0.505993,-1.29801 0.859893,-3.20667 4.189453,-15.70507 3.06366,-11.50028 1.59089,-16.41998 -1.724609,-19.08399 -31.537466,-19.743815 -26.012861,39.62319 -7.779297,10.72656 0.629493,-1.46711 -0.826829,-3.2861 -2.507812,-1.2539 -9.214419,17.13643 -14.491783,-9.34506 -1.105469,-11.308599 5.20524,-0.90661 12.233812,4.308189 11.974609,9.656249 -0.100963,2.08314 -1.843569,10.17835 -2.849609,13.30079 -0.177207,0.55 -1.082336,4.29375 -2.101563,7.59375 -2.043294,6.53819 -5.464368,21.39334 -6.699218,21.81445 -1.234851,0.42111 -2.774259,-2.69024 -5.074219,-5.07227 -8.378166,-8.67716 -16.089014,-9.9744 -19.677734,-3.31054 -2.948156,5.47439 2.665013,14.72143 8.107421,13.35547 2.046696,-0.51369 3.977839,-3.9508 4.5,-6.03126 0.755843,-2.34035 -1.767069,-3.20484 -2.435547,-0.97851 -0.534865,1.78134 -1.498525,4.05046 -2.8125,4.20703 -4.253368,0.50681 -7.14826,-7.83388 -3.580078,-10.64062 0.966115,-0.75994 2.666497,-1.12305 3.416016,-1.12305 6.398816,0.30729 12.385958,7.91813 16.214844,12.9082 4.46e-4,0.24461 0.121661,2.10685 -0.646485,3.87891 -0.768147,1.77207 -2.549976,5.72581 -3.638671,8.65625 -2.907269,7.8255 -3.095834,8.26172 -12.470704,8.26172 -6.122719,0 -11.308641,-0.3704 -11.585937,-0.85938 -0.396675,-0.6254 2.178613,-3.94215 4.056641,-6.63086 0.83787,-1.2157 0.08265,-3.25824 -2.044922,-1.04101 -1.359545,1.41683 -4.226853,5.58156 -4.994141,5.30273 -0.882652,-0.32076 -0.751919,-4.90945 -0.761719,-7.26562 -0.448628,-1.81231 -1.593147,-1.90745 -1.792968,0.0176 -10e-7,2.51098 -0.189977,7.29943 -0.875,7.42774 -0.611313,0.1145 -3.827002,-3.38585 -5.28711,-5.04883 -1.16631,-1.12006 -2.355312,-0.39814 -1.378906,1.20899 1.188214,1.60866 4.445458,5.80665 4.128906,6.5957 -0.314249,0.6478 -5.694531,0.94882 -7.894531,1.36719 -3.205451,0.44939 -3.028068,1.74538 -0.347656,1.87109 3.004914,0.14092 7.858215,0.17889 8.117187,0.72656 0.212887,0.4502 -3.433729,5.55281 -4.357422,6.79883 -0.990059,1.92012 0.169568,2.45646 1.53711,1.11719 1.602713,-1.65358 4.939882,-5.51606 5.541015,-5.31641 0.560441,0.18613 0.799098,6.43192 0.773438,8.29688 -0.03135,2.27869 1.794168,1.55585 1.830078,0.27929 0,0 0.480125,-8.73809 1.095703,-8.86523 0.615577,-0.12714 5.330078,5.01758 5.330078,5.01758 2.053197,1.3641 2.328776,-0.24527 1.527344,-1.2793 -1.218285,-1.97996 -4.333039,-5.42407 -3.958984,-6.04102 0.335011,-0.55255 2.478785,-1.33463 9.134765,-0.90429 2.487723,0.1164 5.153942,0.42162 8.753906,0.64258 3.102689,0.17564 2.974223,2.76655 6.152344,10.57226 4.360143,10.80557 3.755064,10.24247 -0.537109,14.26953 -2.734102,2.53691 -5.327302,4.70299 -9.478516,5.9336 -14.264328,2.20658 -3.96864,-19.43116 1.021484,-5.99219 0.860332,1.4461 2.031088,0.3498 1.822266,-0.56836 -0.606226,-2.31465 -1.36333,-3.96167 -1.966797,-4.61133 -5.35365,-5.86762 -13.17709,2.78035 -10.335937,9.68945 1.015623,2.52958 3.923049,4.39017 7.441406,4.41407 4.096248,0.0279 8.151229,-1.92109 12.785156,-6.14453 1.91096,-1.74173 3.634019,-3.16609 3.828139,-3.16609 0.194126,0 0.853477,1.575 1.464844,3.5 1.259646,3.96627 4.088891,11.84133 5.330078,14.83398 6.372293,15.36441 7.199111,17.99968 6.835938,21.7793 -0.574227,5.97609 -5.36676,10.46205 -10.320313,9.6582 -18.026957,-3.59578 -6.209276,-30.83078 -0.384766,-14.92187 0.565776,1.96221 2.366643,1.40114 2.234376,-0.31836 -0.245508,-4.11565 -3.612777,-7.80525 -6.777344,-7.84375 -3.727413,-0.0453 -6.969522,4.2925 -7.669922,10.26367 -0.541335,4.61508 0.569629,8.14119 3.71875,11.79883 2.770233,3.21757 6.007995,4.58398 10.859375,4.58398 11.109191,-0.41089 13.836734,-15.57875 11.066406,-24.96875 27.487989,-5.91976 50.863559,-6.98416 73.728519,0.13086 0.4358,4.9793 1.45999,8.91205 -1.5957,13.58203 -5.71998,6.12235 -11.93207,15.18073 -10.94141,28.91993 0.87875,7.83275 4.1425,12.5898 9.2168,18.83203 3.863,4.09914 4.91841,7.38733 4.73437,9.98633 0,0 0.26304,2.80044 -0.93945,3.29882 -1.20249,0.49838 -3.18082,-3.14505 -6.07422,-5.16796 -1.16895,-0.4713 -1.93657,0.23106 -1.14258,1.5332 1.38978,2.35668 5.07635,5.50181 4.89649,6.83398 -0.17985,1.33218 -6.51238,0.18918 -8.44727,0.88477 -1.93489,0.69559 -0.99662,1.58472 -0.0879,1.68945 2.65549,0.30605 8.15677,-0.37634 8.67773,1.17383 0.52096,1.55017 -3.06423,2.38009 -5.65429,6.15039 -0.3086,1.1706 0.39918,1.75496 1.50586,1.2832 4.15526,-1.77133 5.17967,-5.54904 6.58789,-4.77343 1.40822,0.7756 0.35574,6.11912 1.03515,8.95898 0.22947,0.5984 1.16712,0.85654 1.81641,-0.006 0.46415,-3.12116 -0.65552,-8.12176 1.06641,-8.64648 1.72192,-0.52472 4.71848,3.46635 5.75,4.35156 1.03152,0.88521 2.27391,-0.0694 1.46875,-1.24219 -0.94364,-1.37446 -5.29868,-4.92518 -4.79493,-6.35547 0.50374,-1.43029 6.349,-0.47169 7.09571,-0.61132 0.74674,-0.13965 1.22519,-1.17598 -0.0254,-1.5 -1.86808,-0.40064 -6.81579,-0.54295 -7.28907,-1.43165 -0.47328,-0.8887 4.17835,-4.56665 5.17383,-6.57226 0.0556,-0.11204 0.1141,-0.19823 0.125,-0.30859 0.0228,-0.23003 0.0353,-0.52096 -0.13086,-0.68165 -0.14941,-0.1444 -0.40789,-0.1101 -0.61523,-0.0957 -0.20354,0.0142 -0.38657,0.0872 -0.58594,0.17774 -0.69159,0.31384 -5.66867,4.68703 -6.60937,4.38671 -0.94066,-0.30032 -0.71703,-0.91685 -0.92383,-3.22656 -0.20739,-2.55861 0.19025,-4.49714 3.34961,-7.6582 10.55227,-10.65278 10.70687,-30.99767 1.95703,-43.60352 -2.64262,-3.90269 -3.24153,-5.6482 -4.11133,-7.20508 -1.23289,-2.66498 -0.44915,-9.3554 -0.18651,-13.13574 20.30577,-7.57242 53.70007,-5.2233 72.75682,-0.1084 0.7402,-20.0959 0.54129,-30.32949 0.48238,-53.42968 3.16618,0 9.76985,-0.43507 10.7129,0.2539 0.94306,0.68897 0.1219,9.77054 0.1289,33.26758 0.005,17.25166 0.0545,32.86938 0.48438,33.60742 0.84632,1.453 1.78064,1.24546 2.63476,-0.0742 0.29664,-0.45834 0.70887,-15.53413 0.53906,-33.5 l -0.31445,-33.24414 c 13.21775,-0.0218 31.63556,-1.04287 32.85938,-0.30078 1.89223,1.49583 -3.50653,4.57346 -4.1875,6.09375 -0.48224,1.4751 0.55673,1.89734 1.43359,1.07617 1.59367,-1.49246 4.07195,-4.60468 6.07617,-4.34375 2.3596,0.38577 1.38405,7.36321 1.84961,8.45118 0.46556,1.08791 1.16096,0.53907 1.33203,-0.61329 0.17107,-1.15235 -0.42883,-8.04358 1.27539,-8.41015 1.70421,-0.36657 3.55662,4.44284 5.48633,5.88867 0.64181,0.40968 1.76338,0.0116 1.1582,-1.35937 -2.12111,-3.31096 -4.04138,-6.01512 -3.60546,-7.03711 0.43592,-1.02198 3.49019,-0.0802 6.71093,-0.48828 0.582,-0.27738 0.98283,-1.45734 -0.0742,-1.64063 -1.57431,-0.27297 -5.60522,-0.0417 -6.51562,-1.27539 -1.08238,-1.46675 2.99412,-4.86634 4.20117,-6.64258 0.14828,-1.0217 -0.28161,-1.57073 -1.1582,-1.20312 -1.32354,0.55505 -3.77887,5.90235 -6.34961,5.36132 -1.82236,-0.38352 -0.64122,-6.74156 -1.1582,-8.54882 -0.34193,-1.19532 -1.37303,-0.60845 -1.60157,0.36523 -0.0122,3.3481 -0.31314,7.57883 -1.48242,7.98438 -1.09454,0.37963 -3.50111,-3.83869 -4.80859,-5.0586 -1.46102,-1.36317 -2.21139,-0.64481 -1.60156,0.79102 0.49578,1.21206 4.73877,4.92469 3.82226,7.26562 -0.61558,1.53114 -9.84906,1.10048 -33.66211,0.54883 l 0.10742,-22.66016 c -0.11412,-11.91667 -0.007,-25.96236 0.23828,-31.21093 l 0.44532,-9.54297 3.26172,-3.72656 c 3.48483,-3.98231 4.10892,-6.3528 1.97265,-7.4961 -1.79216,-0.959129 -1.89167,-0.920989 -2.96484,1.1543 -2.42479,4.68902 -8.08953,8.11793 -13.45313,8.14453 -2.57556,0.0128 -4.4982,1.36586 -3.95507,2.78125 0.50377,1.31279 3.66993,1.88127 7.8496,1.41016 l 3.14649,-0.35547 v 30.36914 c 0,0 1.94788,30.00312 0.20898,31.04883 -1.7389,1.0457 -7.44273,1.28978 -10.89062,0.26953 l 0.0879,-25.74024 -0.0371,-25.29101 -1.03709,-0.37098 c -9.40825,-2.56118 -13.68218,-13.29984 -35.94141,-14.10156 -8.23904,0.0997 -19.03567,3.59919 -28.35547,9.97461 -4.36559,2.9953 -6.24357,4.66871 -9.15624,6.45313 -0.38482,-0.38482 -0.067,-11.47434 0.60718,-18.10679 0.72543,-2.77322 0.73759,-2.45108 2.67797,-3.94204 2.2159,-1.30191 6.23085,-8.524019 7.47266,-12.054689 3.26959,-9.295961 -0.0309,-23.729278 -7.32031,-32.019531 -1.28037,-1.456174 -2.65916,-3.321485 -2.83985,-4.146485 -0.39871,-2.268094 -1.90237,-5.585937 1.125,-11.388672 0.50373,-0.780579 6.9317,7.399865 8.67774,6.085938 2.04728,-1.54423 -7.51553,-8.245742 -6.22461,-10.0625 0.9472,-1.303053 10.32955,-6.25e-4 10.41015,-1.90625 -0.002,-2.485686 -10.62677,-0.147209 -10.98242,-1.509766 -0.50851,-1.108983 7.73642,-9.396398 5.86914,-10.800781 -1.69078,-1.099697 -7.69117,8.160809 -8.67773,7.710938 -1.21249,-0.598479 0.0385,-11.69816 -2.26563,-11.72461 z m 0.25781,15.132813 c 0.91667,0 1.93769,0.780356 1.92579,1.703125 -0.0147,1.14398 -0.97201,1.851562 -1.88868,1.851562 -0.91667,0 -1.8164,-1.040628 -1.8164,-1.888672 0,-0.811015 0.86262,-1.666015 1.77929,-1.666015 z m -2,22.599609 c 0.32625,0.04475 0.33204,0.929916 0.33204,3.259766 0,2.0735 -0.13238,3.769531 -0.29493,3.769531 -0.60949,0 -2.37109,-3.005155 -2.37109,-4.044922 0,-0.59492 0.60063,-1.625402 1.33398,-2.289062 0.49442,-0.447425 0.80426,-0.722166 1,-0.695313 z m 4.24805,1.029297 c 0.3989,0 0.9094,0.729034 1.13281,1.619141 0.2234,0.890107 0.0878,2.163804 -0.30078,2.832031 -0.62578,1.076073 -0.70866,1.012967 -0.72656,-0.5625 -0.0112,-0.978346 -0.20321,-2.253997 -0.42578,-2.833984 -0.22256,-0.579993 -0.0786,-1.054688 0.32031,-1.054688 z m -8.79687,4.386719 2.42382,3.30664 c 1.87592,2.558087 2.42861,3.948378 2.44141,6.140625 0.009,1.558333 -0.0587,2.821664 -0.15039,2.808594 -0.23967,-0.0341 -4.66306,-5.274352 -5.75391,-6.816406 -0.78641,-1.1116 -0.7781,-1.602421 0.0586,-3.369141 z m 12.83593,1.720703 c 0.3006,-5.97e-4 0.53928,0.314003 0.99805,0.941406 1.02478,1.40148 1.04617,1.349969 -2.28516,5.789063 -2.67046,3.55846 -3.33398,3.852876 -3.33398,1.474609 0,-2.31684 1.52405,-5.720059 3.25195,-7.259766 0.70681,-0.629716 1.06854,-0.944715 1.36914,-0.945312 z m -15.94336,6.964844 c 0.0656,-0.01482 0.13035,-0.0076 0.19532,0.02148 0.43647,0.195234 2.36797,2.167086 4.29297,4.382812 2.73306,3.145833 3.5,4.522771 3.5,6.277344 0,1.235807 -0.225,2.245441 -0.5,2.244141 -0.275,-0.0012 -2.3,-1.199803 -4.5,-2.664063 -2.2,-1.46426 -4.25907,-2.750482 -4.57618,-2.857422 -0.31712,-0.106946 -0.22361,-1.892396 0.20704,-3.966796 0.44866,-2.161233 0.92154,-3.33376 1.38085,-3.4375 z m 18.62696,0.675781 c 0.0363,0.0071 0.0664,0.02345 0.0918,0.04883 0.32456,0.32456 0.7682,1.927313 0.98438,3.5625 0.39134,2.960033 0.37556,2.989844 -3.5957,6.457031 -4.14197,3.616222 -4.78517,3.600982 -4.78517,-0.10547 0,-1.841252 6.18009,-10.181759 7.30469,-9.962891 z m -19.97071,9.472656 3.5,2.554688 c 5.35241,3.907529 5.83204,4.404669 5.83204,6.039059 0,1.56824 -0.9352,2.03619 -1.67579,0.83789 -0.23164,-0.3748 -2.04906,-1.88536 -4.03906,-3.35546 -2.7374,-2.02224 -3.61719,-3.08702 -3.61719,-4.375005 z m 21.3086,1.318359 c 0.0949,-0.01064 0.16702,0.0049 0.21289,0.05078 1.0431,1.0431 -0.8138,3.932548 -4.05859,6.314458 -3.76358,2.76272 -4.13086,2.87599 -4.13086,1.27539 0,-1.32586 6.55268,-7.481086 7.97656,-7.64063 z m -19.23438,7.843748 c 0.3434,0.0944 1.82721,1.08076 3.5918,2.40039 2.63101,1.9676 3.66602,3.18545 3.66602,4.312499 0,1.9709 -0.73023,1.99186 -2.41993,0.0703 -1.81226,-2.060889 -4.91211,-6.332039 -4.91211,-6.767579 0,-0.0246 0.0252,-0.0291 0.0742,-0.0156 z m 16.76368,1.62305 c 0.4612,-0.005 -0.4182,1.89247 -1.68165,3.62695 -0.28069,0.38533 -1.25699,1.541129 -2.16796,2.568359 l -1.65625,1.86719 v -1.6582 c 0,-1.52997 4.17743,-6.389099 5.50586,-6.404299 z m 30.83398,18.544919 c 4.67752,0.3469 14.12753,2.17975 18.54297,4.08399 3.78703,1.69478 12.91601,9.37109 12.91601,9.37109 l -0.0117,47.17969 c -0.1866,25.48287 -0.30944,48.71598 -0.40234,50.02148 -3.57637,-2.83803 -8.05909,-8.05714 -16.88718,-11.92269 -9.86489,-4.82832 -22.29904,-4.58874 -32.33104,0 -8.77302,3.84817 -14.42001,8.88011 -18.16654,13.55746 v -47.08985 -47.08984 c 4.49272,-4.63692 10.75262,-9.48683 17.23046,-13.24805 6.50179,-3.24183 11.92265,-4.78478 19.10938,-4.86328 z m -79.19141,0.082 c 5.36415,-0.10711 11.12667,0.69551 16.29883,2.58594 7.79124,2.81181 15.40649,8.86372 22.8086,14.49023 l 0.28906,40.03907 c 0.0597,17.39499 -0.0245,36.43177 -0.39844,55.66601 -7.70694,-8.10176 -18.45271,-16.46272 -34.44336,-17.73437 -12.47182,-0.39915 -25.81957,7.66914 -34.669923,15.88086 1.051215,-32.60639 -1.043219,-66.27756 0.585937,-97.31055 6.135346,-5.72518 15.240616,-11.21185 24.333986,-13.21289 1.66287,-0.23132 3.40726,-0.36859 5.19531,-0.4043 z m 150.05664,26.92188 c -0.38891,-0.0378 -0.7482,0.25122 -0.86914,1.04297 -0.24188,1.58349 0.0741,6.54803 -0.72461,6.99804 -0.79871,0.45001 -5.53676,-4.04509 -6.41015,-4.52929 -0.87338,-0.4842 -1.95315,0.37643 -1.19531,1.24414 0.75782,0.86771 4.70085,4.87706 4.51757,5.54883 -0.18329,0.67175 -4.53901,1.08228 -6.54101,1.39648 -1.58442,0.33538 -1.48647,1.38362 -0.19532,1.51367 0,0 6.46123,0.0514 6.99415,1.23047 0.53292,1.17906 -4.23289,5.00756 -4.53125,5.66016 -0.29836,0.65261 0.19147,1.94279 1.13671,1.40234 1.34161,-1.10587 5.26905,-3.97759 5.93555,-3.60938 0.69269,0.36821 1.34306,5.92795 1.58984,7.54297 0.25445,0.91707 1.24654,1.41122 1.59766,0.10547 0.0726,-1.9177 0.0835,-7.70513 0.98242,-8.11523 0.89892,-0.4101 4.3487,3.54102 5.53907,4.00586 1.19036,0.46485 1.44296,-0.54033 1.16601,-1.26172 -2.55359,-2.77032 -4.81126,-4.44706 -4.24609,-5.80859 0.51496,-1.283 5.88715,-1.34287 7.30469,-1.76758 1.01227,-0.61329 0.53459,-1.66465 -0.29102,-1.71875 -1.31813,-0.0864 -6.2172,1.03199 -7.16406,-0.375 -1.00379,-1.4916 3.26208,-4.9451 3.33398,-6.78711 0.0546,-1.39828 -0.74749,-1.43993 -1.47656,-0.83594 -0.72907,0.60399 -3.20265,5.0086 -4.36914,4.6543 -1.16649,-0.3543 -0.56279,-5.56713 -1.03906,-6.61133 -0.23814,-0.5221 -0.65601,-0.88797 -1.04493,-0.92578 z m 0.26758,10.80273 c 1.28308,-0.0262 1.55779,0.8963 1.58399,1.86524 0.0262,0.96894 -0.62799,1.67112 -1.66211,1.73242 -1.03413,0.0613 -1.63625,-0.71234 -1.71485,-1.62891 -0.0786,-0.91656 0.50988,-1.94255 1.79297,-1.96875 z m -200.246094,9.4707 c 0.395959,3.0444 0.497484,7.3019 0.707031,11.61915 -0.366139,1.74153 -0.649363,2.20943 -3.099609,2.38671 -1.558334,0.11274 -3.148438,-0.18079 -3.148438,-0.52343 0,-0.92588 4.869303,-12.74769 5.541016,-13.48243 z m 219.166014,13.70511 c 2.31462,-0.0448 1.99112,2.99864 0.0508,3.05664 -1.98033,0.0592 -2.22866,-3.03654 -0.0508,-3.05664 z m -254.373045,0.8086 c 1.028931,-0.0185 1.707031,0.44229 1.707031,1.70508 0,1.26278 -0.737529,1.49039 -1.707031,1.52539 -0.969503,0.035 -1.622294,-0.40839 -1.621094,-1.52539 0.0012,-1.11702 0.592162,-1.68658 1.621094,-1.70508 z m 32.726562,2.25 c 3.632897,0.40185 3.905416,0.40989 3.707032,6.8789 -0.104973,3.42302 0.34747,4.98993 1.208984,5.04883 0.76015,0.0196 1.160066,-1.96656 1.197266,-6.71289 0.02825,-3.60158 0.493895,-4.93657 2.007812,-4.98437 4.685786,-0.14812 6.13111,0.004 3.279297,5.09765 -1.676007,3.78974 -3.12076,8.10079 -1.677734,8.57422 0.44118,0.14474 1.246759,-1.53891 2.179687,-3.68945 1.929762,-4.4484 4.084112,-8.89088 5.298828,-8.19922 1.395274,0.79447 0.05092,14.1774 -0.01953,25.72656 -0.07045,11.54917 -0.0687,25.71122 -0.599609,24.45508 -5.083227,-8.82396 -7.461992,-17.72025 -11.601563,-27.00391 l -1.078125,-3.21679 2.34375,-2.73633 c 1.288326,-1.50512 2.341796,-3.13319 2.341796,-3.61719 0,-1.48275 -1.813198,-0.82143 -3.398438,1.02344 -3.10902,3.80038 -2.907777,3.86662 -4.537109,-2.31836 -0.514453,-1.78773 -1.542683,-4.99959 -2.166015,-7.17188 -1.706754,-5.94797 -1.916758,-7.36176 1.513671,-7.15429 z m 203.261723,8.77148 c -0.28033,-0.0158 -0.54572,0.17832 -0.73242,0.63867 -0.29386,3.43807 0.37292,7.52026 -1.08985,8.01953 -1.46276,0.49927 -2.91105,-2.55931 -6.10937,-4.39062 -0.78532,-0.12569 -1.38889,0.93734 -1.17383,1.45508 2.20501,3.13608 5.13407,4.60663 4.82617,5.64844 -0.3079,1.0418 -5.37081,0.25263 -6.57422,0.6289 -1.20342,0.37626 -1.35478,1.12185 -0.44336,1.5586 2.67942,0.74755 6.79957,0.0646 7.24219,1.43945 0.44261,1.37485 -3.09092,3.72032 -5.12695,6.28711 -0.32278,0.84823 -0.0191,1.35156 0.96679,1.35156 2.91402,-1.21449 6.0208,-5.34549 7.11719,-4.86328 1.09669,0.48222 0.37874,5.08659 1.10156,7.22656 0.70557,1.85578 1.63983,1.66977 2.19141,0.1582 0.64191,-2.31841 -1.00767,-6.3587 0.37305,-7.23242 1.38071,-0.87373 4.12971,3.09357 5.82617,4.24414 0.98675,0.58381 2.19176,-0.3365 1.41797,-2.00586 -0.98209,-1.66259 -4.89364,-4.49408 -4.42969,-5.54882 0.46395,-1.05473 2.86233,-0.22549 6.96289,-0.70118 0.71153,-0.25624 0.64202,-1.10968 -0.11523,-1.54882 -3.40549,-0.64046 -7.09717,-0.0148 -7.58985,-1.26758 -0.49268,-1.25281 3.5222,-2.80421 5.18164,-5.73438 0.27294,-0.87996 -0.48026,-1.73722 -1.43945,-1.53125 -2.56551,1.629 -4.36377,4.87827 -5.74219,4.53125 -1.37841,-0.34701 -0.74811,-4.61804 -1.82226,-7.74023 -0.2433,-0.38096 -0.53804,-0.60725 -0.81836,-0.62305 z m 0.2539,11.9707 c 1.24161,-0.0524 2.10629,1.09515 1.24805,2.26758 -0.73337,1.00185 -2.17578,0.31952 -2.17578,-0.93554 0,-0.73333 0.41696,-1.33204 0.92773,-1.33204 z m -147.86718,14.02149 c 0.55904,-0.0169 1.08321,-0.007 1.56836,0.0332 8.31516,0.38409 19.80381,4.2988 29.03823,14.04075 -19.05407,-5.16438 -41.05043,-4.54703 -61.024611,0 4.205381,-7.45747 22.032321,-13.82097 30.418021,-14.07397 z m 74.00606,-0.0711 c 7.50431,0 21.43607,2.27033 29.4998,14.25668 -21.2532,-5.37014 -40.59063,-4.77187 -61.41797,0.29296 8.5514,-8.75398 20.73227,-14.29687 31.91817,-14.54964 z m -38.40059,35.0848 v 2.35742 c 0,1.71341 -0.49927,2.82296 -1.83204,4.0625 -1.00833,0.9378 -2.73398,2.26789 -3.83398,2.95703 l -2,1.25388 1.25391,-2 c 0.68914,-1.1 1.91749,-2.74936 2.73047,-3.66602 0.81295,-0.91667 1.97384,-2.40981 2.58007,-3.3164 z m 3.07226,1.92969 c 0.48661,0.10738 1.47081,1.38 3.26172,4.07812 1.35559,2.04229 2.32994,3.84975 2.16406,4.01563 -0.60724,0.60724 -5.83008,-5.73894 -5.83008,-7.08399 0,-0.71962 0.11234,-1.07419 0.4043,-1.00976 z m -3.73047,7.70114 c 1.12885,0 0.72226,2.34594 -0.66406,3.83398 -0.7274,0.78078 -2.60176,2.28642 -4.16602,3.34571 -4.33259,2.93397 -4.42466,2.97007 -4.04687,1.52539 0.52182,-1.99545 7.3637,-8.70508 8.87695,-8.70508 z m 3.85157,0 c 0.28894,0 2.38829,1.73978 4.66601,3.86719 2.64799,2.47325 4.14063,4.39705 4.14063,5.33398 0,0.80593 -0.0743,1.4534 -0.16602,1.4375 -0.0917,-0.0159 -2.18188,-1.44222 -4.64453,-3.16797 -3.94417,-2.76397 -4.4802,-3.39611 -4.5,-5.30468 -0.0123,-1.19167 0.21496,-2.16602 0.50391,-2.16602 z m -3.82618,8 c 0.54116,0 0.66445,0.67583 0.38282,2.08398 -0.22916,1.14583 -0.41602,2.51744 -0.41602,3.04883 0,0.53139 -1.69514,2.74324 -3.76758,4.91602 -2.07248,2.17278 -3.96468,3.95117 -4.20312,3.95117 -0.60148,0 -1.87972,-6.51232 -1.41016,-7.18359 0.78814,-1.12671 8.64613,-6.81641 9.41406,-6.81641 z m 3.9375,0.66602 c 0.91381,0 8.25138,5.22762 8.85742,6.31054 0.27982,0.5 0.26386,2.06059 -0.0352,3.4668 -0.29901,1.40621 -0.67586,2.20879 -0.83594,1.7832 -0.16007,-0.4256 -2.16537,-2.15005 -4.45703,-3.83203 -3.73577,-2.74188 -4.16602,-3.29931 -4.16602,-5.39258 0,-1.28409 0.28634,-2.33593 0.63672,-2.33593 z m -0.25976,9.33398 c 0.20782,0 2.02276,1.42057 4.0332,3.15625 3.10673,2.68216 3.59487,3.40626 3.24609,4.83203 -0.85647,3.50111 -1.9121,3.68244 -4.90234,0.83789 -2.45746,-2.33773 -2.75391,-2.95314 -2.75391,-5.72265 0,-1.70677 0.16916,-3.10352 0.37696,-3.10352 z m -3.54883,0.66602 c 0.27753,0 0.50105,1.42629 0.49805,3.16796 -0.005,2.7109 -0.3465,3.52583 -2.375,5.66602 -1.30324,1.375 -2.602,2.5 -2.88672,2.5 -0.28472,0 -0.87628,-0.78634 -1.31446,-1.74805 -0.64964,-1.4258 -0.60756,-2.03843 0.22852,-3.31445 1.43348,-2.18777 5.24252,-6.27148 5.84961,-6.27148 z m 4.57617,11.45117 c 0.41405,-0.006 1.02615,0.55336 1.89063,1.65234 1.30526,1.65936 1.32154,1.84617 0.27734,3 -1.92542,2.12757 -2.90625,1.53014 -2.90625,-1.76953 0,-1.93327 0.20593,-2.87527 0.73828,-2.88281 z m -5.05859,0.54883 c 0.70741,0 0.98633,0.75728 0.98633,2.66796 0,2.80395 -0.62148,3.32545 -1.99219,1.67383 -1.03951,-1.25252 -0.3237,-4.34179 1.00586,-4.34179 z m 2.71321,21.388 c 1.05363,10e-4 1.79251,0.58606 1.79265,1.72825 1.4e-4,1.14219 -0.81387,1.62874 -1.81366,1.62874 -0.99979,0 -1.77457,-0.48773 -1.77688,-1.68538 -0.002,-1.19766 0.74427,-1.67297 1.79789,-1.67161 z"
     id="path914"
     inkscape:connector-curvature="0"
     sodipodi:nodetypes="ccccccccccccccccccccccccccccccsccccsccscsscscccccssccccccccccccccccccsccccccccccccccsccsccccsscccccccscccscsccccccsccccscccccccccccccccccccccccccccccccccccscccccccccccccccccccccccccccsccccccccccscssscsssccsccccscccccccscsscscccscsccccccsscccscssccccscccccscccccscccccccsccccccccccccccccsccccccscccccsccccccsssccccccscccsccccccccccscccccsssccccsccscccccccccccccccccccccscccccccscccccccccccccccscccccssscccsccsscccsscsccssscscscssccssccccscczccssczzcszzczzccsccc" />
  <path
     style="fill:#c8e4ef;fill-opacity:1;stroke:none;stroke-width:1.19861019px;stroke-linecap:butt;stroke-linejoin:miter;stroke-opacity:1"
     d="m 106.55764,141.68784 c 23.22986,-9.65065 24.39843,-9.79333 46.60654,0 v 3.91227 c -22.50481,-11.05309 -22.66629,-10.87467 -46.60654,0 z"
     id="path4632"
     inkscape:connector-curvature="0"
     sodipodi:nodetypes="ccccc" />
  <path
     style="fill:#cceeed;fill-opacity:1;stroke:none;stroke-width:1.19861019px;stroke-linecap:butt;stroke-linejoin:miter;stroke-opacity:1"
     d="m 106.50527,161.88506 c 23.22986,-9.65065 24.39843,-9.79332 46.60654,0 v 3.91228 c -22.50481,-11.05309 -22.66629,-10.87467 -46.60654,0 z"
     id="path4632-6"
     inkscape:connector-curvature="0"
     sodipodi:nodetypes="ccccc" />
  <path
     style="fill:#c8e4ef;fill-opacity:1;stroke:none;stroke-width:1.19861019px;stroke-linecap:butt;stroke-linejoin:miter;stroke-opacity:1"
     d="m 106.92421,180.09182 c 23.22986,-9.65059 24.39843,-9.79365 46.60654,0 v 3.91207 c -22.50481,-11.05302 -22.66629,-10.87479 -46.60654,0 z"
     id="path4632-6-7"
     inkscape:connector-curvature="0"
     sodipodi:nodetypes="ccccc" />
  <path
     style="fill:#cceeed;fill-opacity:1;stroke:none;stroke-width:1.19861019px;stroke-linecap:butt;stroke-linejoin:miter;stroke-opacity:1"
     d="m 105.6674,196.94401 c 23.22987,-9.65047 24.39844,-9.79326 46.60655,0 v 3.91224 c -22.50481,-11.05286 -22.66629,-10.87479 -46.60655,0 z"
     id="path4632-6-5"
     inkscape:connector-curvature="0"
     sodipodi:nodetypes="ccccc" />
  <path
     style="fill:#c8e4ef;fill-opacity:1;stroke:none;stroke-width:1.19861019px;stroke-linecap:butt;stroke-linejoin:miter;stroke-opacity:1"
     d="m 179.92366,145.1831 c 23.22986,-9.65042 24.39843,-9.79349 46.60654,0 v 3.91228 c -22.50481,-11.05299 -22.66629,-10.87484 -46.60654,0 z"
     id="path4632-6-3"
     inkscape:connector-curvature="0"
     sodipodi:nodetypes="ccccc" />
  <path
     style="fill:#cceeed;fill-opacity:1;stroke:none;stroke-width:1.19861019px;stroke-linecap:butt;stroke-linejoin:miter;stroke-opacity:1"
     d="m 180.13313,162.18601 c 23.22986,-9.65059 24.39843,-9.79332 46.60654,0 v 3.91205 c -22.50481,-11.05279 -22.66629,-10.87457 -46.60654,0 z"
     id="path4632-6-56"
     inkscape:connector-curvature="0"
     sodipodi:nodetypes="ccccc" />
  <path
     style="fill:#c8e4ef;fill-opacity:1;stroke:none;stroke-width:1.19861019px;stroke-linecap:butt;stroke-linejoin:miter;stroke-opacity:1"
     d="m 180.3426,179.33932 c 23.22986,-9.65059 24.39843,-9.79332 46.60654,0 v 3.91206 c -22.50481,-11.05281 -22.66629,-10.87457 -46.60654,0 z"
     id="path4632-6-2"
     inkscape:connector-curvature="0"
     sodipodi:nodetypes="ccccc" />
  <path
     style="fill:#cceeed;fill-opacity:1;stroke:none;stroke-width:1.19861019px;stroke-linecap:butt;stroke-linejoin:miter;stroke-opacity:1"
     d="m 180.65679,196.79363 c 23.22986,-9.65061 24.39843,-9.79361 46.60654,0 v 3.91205 c -22.50481,-11.05308 -22.66629,-10.87485 -46.60654,0 z"
     id="path4632-6-9"
     inkscape:connector-curvature="0"
     sodipodi:nodetypes="ccccc" />
</svg>
